<svg width="437" height="459" viewBox="0 0 437 459" fill="none" xmlns="http://www.w3.org/2000/svg">
<path d="M285.951 113.271C314.276 151.262 334.656 182.346 367.125 223.446C399.249 264.545 443.463 315.315 436.209 352.961C428.61 390.952 369.889 415.474 319.457 432.397C269.371 449.666 227.575 459.336 186.47 458.991C145.02 458.991 103.569 448.63 74.5539 424.799C45.5386 400.623 28.613 362.977 18.5958 324.295C8.23315 285.958 4.43351 246.931 1.67015 193.743C-1.43864 140.21 -3.51116 72.1716 27.2313 34.8712C57.9737 -2.42928 122.222 -8.64602 171.963 10.6949C222.049 30.0359 257.972 75.28 285.951 113.271Z" fill="url(#paint0_linear_97_15875)"/>
<defs>
<linearGradient id="paint0_linear_97_15875" x1="218.5" y1="0" x2="218.5" y2="459" gradientUnits="userSpaceOnUse">
<stop stop-color="#FF6F3C"/>
<stop offset="1" stop-color="#FDD400"/>
</linearGradient>
</defs>
</svg>
