<svg width="365" height="387" viewBox="0 0 365 387" fill="none" xmlns="http://www.w3.org/2000/svg">
<path d="M318.49 102.758C338.728 138.013 370.368 171.666 363.333 195.758C356.053 219.708 310.24 233.851 278.776 271.337C246.926 308.927 229.811 369.757 200.178 383.093C170.403 396.675 128.214 363.15 87.1661 333.886C46.2221 305.01 6.56142 280.147 1.0467 247.173C-4.46801 214.199 23.814 172.585 34.3498 128.253C45.273 83.8185 38.2044 36.5255 57.7432 15.7246C76.8947 -4.97254 122.55 0.435149 163.899 1.39289C205.145 1.96336 242.473 -2.01987 265.504 14.2233C288.78 30.6083 298.006 67.3615 318.49 102.758Z" fill="url(#paint0_linear_97_15868)"/>
<defs>
<linearGradient id="paint0_linear_97_15868" x1="263.894" y1="13.0612" x2="78.3085" y2="334.506" gradientUnits="userSpaceOnUse">
<stop stop-color="#FF6F3C"/>
<stop offset="1" stop-color="#FDD400"/>
</linearGradient>
</defs>
</svg>
