<svg width="418" height="427" viewBox="0 0 418 427" fill="none" xmlns="http://www.w3.org/2000/svg">
<path d="M261.481 134.636C296.562 170.292 351.773 167.417 383.116 190.134C414.747 212.563 421.936 260.585 414.172 309.469C406.408 358.354 383.691 408.101 345.159 421.903C306.339 435.706 251.991 413.277 216.622 386.822C181.253 360.366 165.437 329.598 124.029 316.658C82.9087 303.718 16.771 308.607 2.96839 290.491C-10.8343 272.375 27.6981 231.254 48.1146 189.271C68.2434 147.288 70.2563 103.867 92.1105 63.897C113.965 23.9269 155.66 -12.8802 183.841 5.81089C212.021 24.7895 226.399 98.6912 261.481 134.636Z" fill="url(#paint0_linear_97_15871)"/>
<defs>
<linearGradient id="paint0_linear_97_15871" x1="208.549" y1="0.804199" x2="208.549" y2="426.104" gradientUnits="userSpaceOnUse">
<stop stop-color="#FF6F3C"/>
<stop offset="1" stop-color="#FDD400"/>
</linearGradient>
</defs>
</svg>
