<svg width="427" height="474" viewBox="0 0 427 474" fill="none" xmlns="http://www.w3.org/2000/svg">
<path d="M341.592 49.8745C361.452 71.3979 378.416 89.196 395.38 114.031C412.343 138.451 428.893 169.495 426.825 200.538C424.756 231.167 404.068 261.796 375.934 310.638C347.799 359.479 312.63 426.533 255.533 456.334C198.022 486.136 119.41 479.099 95.8263 428.602C72.2427 378.519 104.101 284.975 83.4139 211.299C63.1403 137.623 -9.67931 83.4012 1.07813 57.7388C11.4218 32.4903 105.756 35.8016 165.336 27.1095C225.329 18.4174 251.395 -2.27813 275.393 0.205332C299.39 2.68879 321.733 27.9373 341.592 49.8745Z" fill="url(#paint0_linear_97_15878)"/>
<defs>
<linearGradient id="paint0_linear_97_15878" x1="213.5" y1="0" x2="213.5" y2="474" gradientUnits="userSpaceOnUse">
<stop stop-color="#FF6F3C"/>
<stop offset="1" stop-color="#FDD400"/>
</linearGradient>
</defs>
</svg>
