<svg width="40" height="18" viewBox="0 0 40 18" fill="none" xmlns="http://www.w3.org/2000/svg">
<path fill-rule="evenodd" clip-rule="evenodd" d="M7.30843 2.75206C6.83963 3.32078 6.08954 3.76935 5.33946 3.70527C5.2457 2.93629 5.61293 2.11926 6.04266 1.61461C6.51147 1.02987 7.33187 0.61334 7.99601 0.581299C8.07414 1.38232 7.76942 2.16732 7.30843 2.75206ZM7.9885 3.85739C7.32769 3.8184 6.72473 4.06113 6.2377 4.25719C5.92429 4.38335 5.65889 4.49019 5.45697 4.49019C5.23038 4.49019 4.95402 4.37764 4.64372 4.25127C4.23714 4.08568 3.77231 3.89637 3.28485 3.90545C2.16754 3.92147 1.12836 4.5703 0.55798 5.60361C-0.614026 7.67024 0.253259 10.7301 1.3862 12.4123C1.94095 13.2453 2.60509 14.1585 3.48018 14.1264C3.86517 14.1115 4.14211 13.9911 4.42872 13.8664C4.75868 13.7229 5.10146 13.5737 5.63668 13.5737C6.15334 13.5737 6.48112 13.719 6.79578 13.8584C7.09496 13.9909 7.38227 14.1182 7.80879 14.1104C8.71515 14.0944 9.28552 13.2774 9.84027 12.4443C10.4389 11.5502 10.702 10.6776 10.7419 10.5452L10.7466 10.5299C10.7457 10.5289 10.7383 10.5254 10.7252 10.5193C10.5251 10.4254 8.99547 9.70747 8.9808 7.78238C8.96607 6.16654 10.1941 5.34786 10.3874 5.21899C10.3991 5.21115 10.4071 5.20586 10.4107 5.2031C9.62931 4.01759 8.41043 3.88943 7.9885 3.85739ZM14.2629 14.0224V1.53456H18.8337C21.1934 1.53456 22.842 3.20067 22.842 5.63577C22.842 8.07086 21.1621 9.753 18.7712 9.753H16.1538V14.0224H14.2629ZM16.1537 3.16852H18.3336C19.9744 3.16852 20.912 4.06566 20.912 5.64367C20.912 7.22167 19.9744 8.12682 18.3258 8.12682H16.1537V3.16852ZM29.0846 12.5245C28.5846 13.5018 27.4829 14.1186 26.2953 14.1186C24.5372 14.1186 23.3105 13.0452 23.3105 11.4271C23.3105 9.8251 24.4982 8.90393 26.6937 8.76776L29.0534 8.62358V7.9347C29.0534 6.91741 28.4049 6.36471 27.2485 6.36471C26.2953 6.36471 25.5999 6.86935 25.4592 7.63832H23.7559C23.8106 6.02027 25.2951 4.84277 27.3032 4.84277C29.4675 4.84277 30.8739 6.00425 30.8739 7.80654V14.0224H29.1237V12.5245H29.0846ZM26.8029 12.6367C25.795 12.6367 25.1543 12.14 25.1543 11.3791C25.1543 10.5941 25.7715 10.1375 26.9513 10.0654L29.0531 9.92922V10.6341C29.0531 11.8036 28.0843 12.6367 26.8029 12.6367ZM36.6793 14.511C35.9214 16.6978 35.0541 17.4187 33.2102 17.4187C33.0695 17.4187 32.6007 17.4027 32.4914 17.3706V15.8727C32.6086 15.8887 32.8977 15.9048 33.0461 15.9048C33.8821 15.9048 34.3509 15.5443 34.64 14.6071L34.8119 14.0544L31.6084 4.96285H33.5852L35.812 12.3402H35.8511L38.0779 4.96285H40L36.6793 14.511Z" fill="black"/>
</svg>
