<svg width="62" height="24" viewBox="0 0 62 24" fill="none" xmlns="http://www.w3.org/2000/svg">
<path d="M21 4H3C1.89543 4 1 4.89543 1 6V18C1 19.1046 1.89543 20 3 20H21C22.1046 20 23 19.1046 23 18V6C23 4.89543 22.1046 4 21 4Z" stroke="#0A2540" stroke-width="2" stroke-linecap="round" stroke-linejoin="round"/>
<path d="M1 10H23" stroke="#0A2540" stroke-width="2" stroke-linecap="round" stroke-linejoin="round"/>
<path d="M35.875 13.2969H37.8281C37.7656 14.0417 37.5573 14.7057 37.2031 15.2891C36.849 15.8672 36.3516 16.3229 35.7109 16.6562C35.0703 16.9896 34.2917 17.1562 33.375 17.1562C32.6719 17.1562 32.0391 17.0312 31.4766 16.7812C30.9141 16.526 30.4323 16.1667 30.0312 15.7031C29.6302 15.2344 29.3229 14.6693 29.1094 14.0078C28.901 13.3464 28.7969 12.6068 28.7969 11.7891V10.8438C28.7969 10.026 28.9036 9.28646 29.1172 8.625C29.3359 7.96354 29.6484 7.39844 30.0547 6.92969C30.4609 6.45573 30.9479 6.09375 31.5156 5.84375C32.0885 5.59375 32.7318 5.46875 33.4453 5.46875C34.3516 5.46875 35.1172 5.63542 35.7422 5.96875C36.3672 6.30208 36.8516 6.76302 37.1953 7.35156C37.5443 7.9401 37.7578 8.61458 37.8359 9.375H35.8828C35.8307 8.88542 35.7161 8.46615 35.5391 8.11719C35.3672 7.76823 35.112 7.5026 34.7734 7.32031C34.4349 7.13281 33.9922 7.03906 33.4453 7.03906C32.9974 7.03906 32.6068 7.1224 32.2734 7.28906C31.9401 7.45573 31.6615 7.70052 31.4375 8.02344C31.2135 8.34635 31.0443 8.74479 30.9297 9.21875C30.8203 9.6875 30.7656 10.224 30.7656 10.8281V11.7891C30.7656 12.362 30.8151 12.8828 30.9141 13.3516C31.0182 13.8151 31.1745 14.2135 31.3828 14.5469C31.5964 14.8802 31.8672 15.138 32.1953 15.3203C32.5234 15.5026 32.9167 15.5938 33.375 15.5938C33.9323 15.5938 34.3828 15.5052 34.7266 15.3281C35.0755 15.151 35.3385 14.8932 35.5156 14.5547C35.6979 14.2109 35.8177 13.7917 35.875 13.2969ZM44.1875 15.3047V11.2734C44.1875 10.9714 44.1328 10.7109 44.0234 10.4922C43.9141 10.2734 43.7474 10.1042 43.5234 9.98438C43.3047 9.86458 43.0286 9.80469 42.6953 9.80469C42.388 9.80469 42.1224 9.85677 41.8984 9.96094C41.6745 10.0651 41.5 10.2057 41.375 10.3828C41.25 10.5599 41.1875 10.7604 41.1875 10.9844H39.3125C39.3125 10.651 39.3932 10.3281 39.5547 10.0156C39.7161 9.70312 39.9505 9.42448 40.2578 9.17969C40.5651 8.9349 40.9323 8.74219 41.3594 8.60156C41.7865 8.46094 42.2656 8.39062 42.7969 8.39062C43.4323 8.39062 43.9948 8.4974 44.4844 8.71094C44.9792 8.92448 45.3672 9.2474 45.6484 9.67969C45.9349 10.1068 46.0781 10.6432 46.0781 11.2891V15.0469C46.0781 15.4323 46.1042 15.7786 46.1562 16.0859C46.2135 16.388 46.2943 16.651 46.3984 16.875V17H44.4688C44.3802 16.7969 44.3099 16.5391 44.2578 16.2266C44.2109 15.9089 44.1875 15.6016 44.1875 15.3047ZM44.4609 11.8594L44.4766 13.0234H43.125C42.776 13.0234 42.4688 13.0573 42.2031 13.125C41.9375 13.1875 41.7161 13.2812 41.5391 13.4062C41.362 13.5312 41.2292 13.6823 41.1406 13.8594C41.0521 14.0365 41.0078 14.237 41.0078 14.4609C41.0078 14.6849 41.0599 14.8906 41.1641 15.0781C41.2682 15.2604 41.4193 15.4036 41.6172 15.5078C41.8203 15.612 42.0651 15.6641 42.3516 15.6641C42.737 15.6641 43.0729 15.5859 43.3594 15.4297C43.651 15.2682 43.8802 15.0729 44.0469 14.8438C44.2135 14.6094 44.3021 14.388 44.3125 14.1797L44.9219 15.0156C44.8594 15.2292 44.7526 15.4583 44.6016 15.7031C44.4505 15.9479 44.2526 16.1823 44.0078 16.4062C43.7682 16.625 43.4792 16.8047 43.1406 16.9453C42.8073 17.0859 42.4219 17.1562 41.9844 17.1562C41.4323 17.1562 40.9401 17.0469 40.5078 16.8281C40.0755 16.6042 39.737 16.3047 39.4922 15.9297C39.2474 15.5495 39.125 15.1198 39.125 14.6406C39.125 14.1927 39.2083 13.7969 39.375 13.4531C39.5469 13.1042 39.7969 12.8125 40.125 12.5781C40.4583 12.3438 40.8646 12.1667 41.3438 12.0469C41.8229 11.9219 42.3698 11.8594 42.9844 11.8594H44.4609ZM49.9375 10.1562V17H48.0547V8.54688H49.8516L49.9375 10.1562ZM52.5234 8.49219L52.5078 10.2422C52.3932 10.2214 52.2682 10.2057 52.1328 10.1953C52.0026 10.1849 51.8724 10.1797 51.7422 10.1797C51.4193 10.1797 51.1354 10.2266 50.8906 10.3203C50.6458 10.4089 50.4401 10.5391 50.2734 10.7109C50.112 10.8776 49.987 11.0807 49.8984 11.3203C49.8099 11.5599 49.7578 11.8281 49.7422 12.125L49.3125 12.1562C49.3125 11.625 49.3646 11.1328 49.4688 10.6797C49.5729 10.2266 49.7292 9.82812 49.9375 9.48438C50.151 9.14062 50.4167 8.8724 50.7344 8.67969C51.0573 8.48698 51.4297 8.39062 51.8516 8.39062C51.9661 8.39062 52.0885 8.40104 52.2188 8.42188C52.3542 8.44271 52.4557 8.46615 52.5234 8.49219ZM58.7031 15.25V5H60.5938V17H58.8828L58.7031 15.25ZM53.2031 12.8672V12.7031C53.2031 12.0625 53.2786 11.4792 53.4297 10.9531C53.5807 10.4219 53.7995 9.96615 54.0859 9.58594C54.3724 9.20052 54.7214 8.90625 55.1328 8.70312C55.5443 8.49479 56.0078 8.39062 56.5234 8.39062C57.0339 8.39062 57.4818 8.48958 57.8672 8.6875C58.2526 8.88542 58.5807 9.16927 58.8516 9.53906C59.1224 9.90365 59.3385 10.3411 59.5 10.8516C59.6615 11.3568 59.776 11.9193 59.8438 12.5391V13.0625C59.776 13.6667 59.6615 14.2188 59.5 14.7188C59.3385 15.2188 59.1224 15.651 58.8516 16.0156C58.5807 16.3802 58.25 16.6615 57.8594 16.8594C57.474 17.0573 57.0234 17.1562 56.5078 17.1562C55.9974 17.1562 55.5365 17.0495 55.125 16.8359C54.7188 16.6224 54.3724 16.3229 54.0859 15.9375C53.7995 15.5521 53.5807 15.099 53.4297 14.5781C53.2786 14.0521 53.2031 13.4818 53.2031 12.8672ZM55.0859 12.7031V12.8672C55.0859 13.2526 55.1198 13.612 55.1875 13.9453C55.2604 14.2786 55.3724 14.5729 55.5234 14.8281C55.6745 15.0781 55.8698 15.276 56.1094 15.4219C56.3542 15.5625 56.6458 15.6328 56.9844 15.6328C57.4115 15.6328 57.763 15.5391 58.0391 15.3516C58.3151 15.1641 58.5312 14.9115 58.6875 14.5938C58.849 14.2708 58.9583 13.9115 59.0156 13.5156V12.1016C58.9844 11.7943 58.9193 11.5078 58.8203 11.2422C58.7266 10.9766 58.599 10.7448 58.4375 10.5469C58.276 10.3438 58.0755 10.1875 57.8359 10.0781C57.6016 9.96354 57.3229 9.90625 57 9.90625C56.6562 9.90625 56.3646 9.97917 56.125 10.125C55.8854 10.2708 55.6875 10.4714 55.5312 10.7266C55.3802 10.9818 55.2682 11.2786 55.1953 11.6172C55.1224 11.9557 55.0859 12.3177 55.0859 12.7031Z" fill="#0A2540"/>
</svg>
