<svg width="24" height="25" viewBox="0 0 24 25" fill="none" xmlns="http://www.w3.org/2000/svg">
<g clip-path="url(#clip0_91_15036)">
<path d="M24 12.6934C24 6.06594 18.6274 0.693359 12 0.693359C5.37258 0.693359 0 6.06594 0 12.6934C0 18.6828 4.3882 23.6473 10.125 24.5476V16.1621H7.07812V12.6934H10.125V10.0496C10.125 7.04211 11.9166 5.38086 14.6576 5.38086C15.9701 5.38086 17.3438 5.61523 17.3438 5.61523V8.56836H15.8306C14.34 8.56836 13.875 9.49344 13.875 10.4434V12.6934H17.2031L16.6711 16.1621H13.875V24.5476C19.6118 23.6473 24 18.6828 24 12.6934Z" fill="#555555"/>
</g>
<defs>
<clipPath id="clip0_91_15036">
<rect width="24" height="24" fill="white" transform="translate(0 0.693359)"/>
</clipPath>
</defs>
</svg>
