<svg width="24" height="25" viewBox="0 0 24 25" fill="none" xmlns="http://www.w3.org/2000/svg">
<g clip-path="url(#clip0_91_15027)">
<path d="M12 2.8543C15.2063 2.8543 15.5859 2.86836 16.8469 2.92461C18.0188 2.97617 18.6516 3.17305 19.0734 3.33711C19.6313 3.55273 20.0344 3.81523 20.4516 4.23242C20.8734 4.6543 21.1313 5.05273 21.3469 5.61055C21.5109 6.03242 21.7078 6.66992 21.7594 7.83711C21.8156 9.10273 21.8297 9.48242 21.8297 12.684C21.8297 15.8902 21.8156 16.2699 21.7594 17.5309C21.7078 18.7027 21.5109 19.3355 21.3469 19.7574C21.1313 20.3152 20.8687 20.7184 20.4516 21.1355C20.0297 21.5574 19.6313 21.8152 19.0734 22.0309C18.6516 22.1949 18.0141 22.3918 16.8469 22.4434C15.5813 22.4996 15.2016 22.5137 12 22.5137C8.79375 22.5137 8.41406 22.4996 7.15313 22.4434C5.98125 22.3918 5.34844 22.1949 4.92656 22.0309C4.36875 21.8152 3.96563 21.5527 3.54844 21.1355C3.12656 20.7137 2.86875 20.3152 2.65313 19.7574C2.48906 19.3355 2.29219 18.698 2.24063 17.5309C2.18438 16.2652 2.17031 15.8855 2.17031 12.684C2.17031 9.47773 2.18438 9.09805 2.24063 7.83711C2.29219 6.66523 2.48906 6.03242 2.65313 5.61055C2.86875 5.05273 3.13125 4.64961 3.54844 4.23242C3.97031 3.81055 4.36875 3.55273 4.92656 3.33711C5.34844 3.17305 5.98594 2.97617 7.15313 2.92461C8.41406 2.86836 8.79375 2.8543 12 2.8543ZM12 0.693359C8.74219 0.693359 8.33438 0.707422 7.05469 0.763672C5.77969 0.819922 4.90313 1.02617 4.14375 1.32148C3.35156 1.63086 2.68125 2.03867 2.01563 2.70898C1.34531 3.37461 0.9375 4.04492 0.628125 4.83242C0.332812 5.59648 0.126563 6.46836 0.0703125 7.74336C0.0140625 9.02773 0 9.43555 0 12.6934C0 15.9512 0.0140625 16.359 0.0703125 17.6387C0.126563 18.9137 0.332812 19.7902 0.628125 20.5496C0.9375 21.3418 1.34531 22.0121 2.01563 22.6777C2.68125 23.3434 3.35156 23.7559 4.13906 24.0605C4.90313 24.3559 5.775 24.5621 7.05 24.6184C8.32969 24.6746 8.7375 24.6887 11.9953 24.6887C15.2531 24.6887 15.6609 24.6746 16.9406 24.6184C18.2156 24.5621 19.0922 24.3559 19.8516 24.0605C20.6391 23.7559 21.3094 23.3434 21.975 22.6777C22.6406 22.0121 23.0531 21.3418 23.3578 20.5543C23.6531 19.7902 23.8594 18.9184 23.9156 17.6434C23.9719 16.3637 23.9859 15.9559 23.9859 12.698C23.9859 9.44024 23.9719 9.03242 23.9156 7.75273C23.8594 6.47773 23.6531 5.60117 23.3578 4.8418C23.0625 4.04492 22.6547 3.37461 21.9844 2.70898C21.3188 2.04336 20.6484 1.63086 19.8609 1.32617C19.0969 1.03086 18.225 0.824609 16.95 0.768359C15.6656 0.707422 15.2578 0.693359 12 0.693359Z" fill="#555555"/>
<path d="M12 6.5293C8.59688 6.5293 5.83594 9.29023 5.83594 12.6934C5.83594 16.0965 8.59688 18.8574 12 18.8574C15.4031 18.8574 18.1641 16.0965 18.1641 12.6934C18.1641 9.29023 15.4031 6.5293 12 6.5293ZM12 16.6918C9.79219 16.6918 8.00156 14.9012 8.00156 12.6934C8.00156 10.4855 9.79219 8.69492 12 8.69492C14.2078 8.69492 15.9984 10.4855 15.9984 12.6934C15.9984 14.9012 14.2078 16.6918 12 16.6918Z" fill="#555555"/>
<path d="M19.8469 6.2855C19.8469 7.08238 19.2 7.72456 18.4078 7.72456C17.6109 7.72456 16.9688 7.07769 16.9688 6.2855C16.9688 5.48862 17.6156 4.84644 18.4078 4.84644C19.2 4.84644 19.8469 5.49331 19.8469 6.2855Z" fill="#555555"/>
</g>
<defs>
<clipPath id="clip0_91_15027">
<rect width="24" height="24" fill="white" transform="translate(0 0.693359)"/>
</clipPath>
</defs>
</svg>
