<svg width="32" height="33" viewBox="0 0 32 33" fill="none" xmlns="http://www.w3.org/2000/svg">
<path d="M30.9536 5.18011C30.9393 4.93547 30.8357 4.70459 30.6624 4.53131C30.4891 4.35802 30.2583 4.2544 30.0136 4.24011C23.5436 3.86511 18.3486 5.83261 16.1161 9.51761C14.6411 11.9539 14.6436 14.9126 16.0961 17.7351C15.2694 18.7193 14.6652 19.8706 14.3249 21.1101L12.2911 19.0689C13.2686 17.0276 13.2311 14.9001 12.1661 13.1326C10.5161 10.4089 6.70737 8.94886 1.97862 9.22636C1.73398 9.24065 1.5031 9.34427 1.32982 9.51756C1.15653 9.69084 1.05291 9.92172 1.03862 10.1664C0.759874 14.8951 2.22112 18.7039 4.94487 20.3539C5.84371 20.903 6.87656 21.1937 7.92987 21.1939C8.95225 21.1813 9.95872 20.9391 10.8749 20.4851L13.9999 23.6101V27.1939C13.9999 27.4591 14.1052 27.7134 14.2928 27.901C14.4803 28.0885 14.7347 28.1939 14.9999 28.1939C15.2651 28.1939 15.5194 28.0885 15.707 27.901C15.8945 27.7134 15.9999 27.4591 15.9999 27.1939V23.5076C15.9954 21.9167 16.5368 20.3725 17.5336 19.1326C18.8198 19.8048 20.2463 20.1645 21.6974 20.1826C23.1003 20.1871 24.4773 19.8039 25.6761 19.0751C29.3611 16.8451 31.3336 11.6501 30.9536 5.18011ZM5.97612 18.6439C4.05862 17.4826 2.97362 14.7339 2.99987 11.1939C6.53987 11.1639 9.28862 12.2526 10.4499 14.1701C11.0561 15.1701 11.1549 16.3364 10.7574 17.5376L7.70612 14.4864C7.51706 14.3067 7.26531 14.2081 7.00455 14.2114C6.74379 14.2148 6.49465 14.3198 6.31025 14.5042C6.12584 14.6886 6.02077 14.9378 6.01744 15.1985C6.0141 15.4593 6.11275 15.7111 6.29237 15.9001L9.34362 18.9514C8.14237 19.3489 6.97738 19.2501 5.97612 18.6439ZM24.6399 17.3664C22.9649 18.3801 20.9961 18.4576 18.9961 17.6164L25.7074 10.9039C25.887 10.7148 25.9857 10.4631 25.9823 10.2023C25.979 9.94153 25.8739 9.69239 25.6895 9.50798C25.5051 9.32358 25.256 9.21851 24.9952 9.21517C24.7344 9.21184 24.4827 9.31049 24.2936 9.49011L17.5811 16.1939C16.7361 14.1939 16.8124 12.2239 17.8311 10.5501C19.5736 7.67511 23.7061 6.07261 28.9974 6.19636C29.1174 11.4864 27.5174 15.6239 24.6399 17.3664Z" fill="#FF6F3C"/>
</svg>
