<svg width="24" height="25" viewBox="0 0 24 25" fill="none" xmlns="http://www.w3.org/2000/svg">
<g clip-path="url(#clip0_91_15024)">
<path d="M22.2234 0.693359H1.77187C0.792187 0.693359 0 1.4668 0 2.42305V22.959C0 23.9152 0.792187 24.6934 1.77187 24.6934H22.2234C23.2031 24.6934 24 23.9152 24 22.9637V2.42305C24 1.4668 23.2031 0.693359 22.2234 0.693359ZM7.12031 21.1449H3.55781V9.68867H7.12031V21.1449ZM5.33906 8.12773C4.19531 8.12773 3.27188 7.2043 3.27188 6.06523C3.27188 4.92617 4.19531 4.00273 5.33906 4.00273C6.47813 4.00273 7.40156 4.92617 7.40156 6.06523C7.40156 7.19961 6.47813 8.12773 5.33906 8.12773ZM20.4516 21.1449H16.8937V15.5762C16.8937 14.2496 16.8703 12.5387 15.0422 12.5387C13.1906 12.5387 12.9094 13.9871 12.9094 15.4824V21.1449H9.35625V9.68867H12.7687V11.2543H12.8156C13.2891 10.3543 14.4516 9.40273 16.1813 9.40273C19.7859 9.40273 20.4516 11.7746 20.4516 14.859V21.1449Z" fill="#555555"/>
</g>
<defs>
<clipPath id="clip0_91_15024">
<rect width="24" height="24" fill="white" transform="translate(0 0.693359)"/>
</clipPath>
</defs>
</svg>
