<svg width="19" height="18" viewBox="0 0 19 18" fill="none" xmlns="http://www.w3.org/2000/svg">
<path d="M14.5312 8.25H4.46875C3.67484 8.25 3.03125 8.92157 3.03125 9.75V15C3.03125 15.8284 3.67484 16.5 4.46875 16.5H14.5312C15.3252 16.5 15.9688 15.8284 15.9688 15V9.75C15.9688 8.92157 15.3252 8.25 14.5312 8.25Z" stroke="#0A2540" stroke-width="1.5" stroke-linecap="round" stroke-linejoin="round"/>
<path d="M5.90625 8.25V5.25C5.90625 4.25544 6.28488 3.30161 6.95883 2.59835C7.63279 1.89509 8.54688 1.5 9.5 1.5C10.4531 1.5 11.3672 1.89509 12.0412 2.59835C12.7151 3.30161 13.0937 4.25544 13.0937 5.25V8.25" stroke="#0A2540" stroke-width="1.5" stroke-linecap="round" stroke-linejoin="round"/>
</svg>
