<svg width="15" height="16" viewBox="0 0 15 16" fill="none" xmlns="http://www.w3.org/2000/svg">
<path d="M13.5938 4.46875V11.0312C13.5938 11.4042 13.4456 11.7619 13.1819 12.0256C12.9181 12.2893 12.5605 12.4375 12.1875 12.4375H2.8125C2.43954 12.4375 2.08185 12.2893 1.81813 12.0256C1.55441 11.7619 1.40625 11.4042 1.40625 11.0312V4.46875M13.5938 4.46875C13.5938 4.09579 13.4456 3.7381 13.1819 3.47438C12.9181 3.21066 12.5605 3.0625 12.1875 3.0625H2.8125C2.43954 3.0625 2.08185 3.21066 1.81813 3.47438C1.55441 3.7381 1.40625 4.09579 1.40625 4.46875M13.5938 4.46875V4.62063C13.5938 4.86072 13.5323 5.09682 13.4153 5.30643C13.2982 5.51605 13.1294 5.69221 12.925 5.81813L8.2375 8.7025C8.01575 8.83908 7.76044 8.91141 7.5 8.91141C7.23956 8.91141 6.98425 8.83908 6.7625 8.7025L2.075 5.81875C1.87058 5.69284 1.70179 5.51668 1.58473 5.30706C1.46767 5.09744 1.40622 4.86134 1.40625 4.62125V4.46875" stroke="#0A2540" stroke-width="0.9375" stroke-linecap="round" stroke-linejoin="round"/>
</svg>
