<svg width="48" height="48" viewBox="0 0 48 48" fill="none" xmlns="http://www.w3.org/2000/svg">
<path d="M33 18.7999L15 8.41992" stroke="#FF6F3C" stroke-width="2" stroke-linecap="round" stroke-linejoin="round"/>
<path d="M42 16V32C41.9993 32.7015 41.8141 33.3904 41.4631 33.9977C41.112 34.605 40.6075 35.1093 40 35.46L26 43.46C25.3919 43.8111 24.7021 43.9959 24 43.9959C23.2979 43.9959 22.6081 43.8111 22 43.46L8 35.46C7.39252 35.1093 6.88796 34.605 6.53692 33.9977C6.18589 33.3904 6.00072 32.7015 6 32V16C6.00072 15.2986 6.18589 14.6097 6.53692 14.0024C6.88796 13.3951 7.39252 12.8908 8 12.54L22 4.54005C22.6081 4.18898 23.2979 4.00415 24 4.00415C24.7021 4.00415 25.3919 4.18898 26 4.54005L40 12.54C40.6075 12.8908 41.112 13.3951 41.4631 14.0024C41.8141 14.6097 41.9993 15.2986 42 16Z" stroke="#FF6F3C" stroke-width="2" stroke-linecap="round" stroke-linejoin="round"/>
<path d="M6.54004 13.9199L24 24.0199L41.46 13.9199" stroke="#FF6F3C" stroke-width="2" stroke-linecap="round" stroke-linejoin="round"/>
<path d="M24 44.16V24" stroke="#FF6F3C" stroke-width="2" stroke-linecap="round" stroke-linejoin="round"/>
</svg>
