<svg width="70" height="24" viewBox="0 0 70 24" fill="none" xmlns="http://www.w3.org/2000/svg">
<path fill-rule="evenodd" clip-rule="evenodd" d="M4.89202 20.1814L5.18632 18.2492L4.53073 18.2334H1.40015L3.57579 3.97526C3.58257 3.93208 3.60448 3.892 3.63648 3.86349C3.66864 3.83498 3.70962 3.81934 3.7525 3.81934H9.03113C10.7837 3.81934 11.993 4.19618 12.6244 4.94011C12.9204 5.28909 13.1089 5.65389 13.2002 6.05517C13.2959 6.47634 13.2975 6.97945 13.2041 7.5932L13.1974 7.63784V8.03114L13.4934 8.2045C13.7426 8.34119 13.9408 8.4976 14.0927 8.67666C14.3459 8.97514 14.5097 9.35443 14.5789 9.80394C14.6504 10.2663 14.6268 10.8167 14.5097 11.4397C14.3746 12.1563 14.1562 12.7804 13.8613 13.2911C13.5902 13.7616 13.2447 14.152 12.8343 14.4543C12.4426 14.7418 11.9773 14.9599 11.4511 15.0995C10.9412 15.2367 10.3598 15.306 9.72219 15.306H9.3114C9.01774 15.306 8.73242 15.4153 8.50842 15.6113C8.2838 15.8114 8.13531 16.0848 8.08975 16.3837L8.0587 16.5577L7.53867 19.9634L7.51518 20.0883C7.50888 20.1279 7.49816 20.1476 7.48239 20.161C7.46837 20.1732 7.44819 20.1814 7.42848 20.1814H4.89202" fill="#28356A"/>
<path fill-rule="evenodd" clip-rule="evenodd" d="M13.7738 7.68311C13.7582 7.78722 13.74 7.89361 13.7199 8.00293C13.0238 11.6971 10.6421 12.9733 7.60041 12.9733H6.05167C5.67966 12.9733 5.36613 13.2524 5.30828 13.6317L4.29076 20.3027C4.25308 20.5518 4.43878 20.7762 4.68185 20.7762H7.42875C7.75395 20.7762 8.03028 20.532 8.08151 20.2004L8.10846 20.0562L8.62565 16.6639L8.65891 16.4779C8.70951 16.1452 8.98648 15.9008 9.31167 15.9008H9.72246C12.3838 15.9008 14.4672 14.7841 15.0761 11.5523C15.3304 10.2023 15.1988 9.07498 14.5257 8.28219C14.322 8.04317 14.0693 7.84473 13.7738 7.68311" fill="#298FC2"/>
<path fill-rule="evenodd" clip-rule="evenodd" d="M13.0453 7.38324C12.9389 7.35114 12.8291 7.32214 12.7166 7.29591C12.6034 7.27033 12.4875 7.24768 12.3682 7.22781C11.9507 7.15807 11.493 7.125 11.003 7.125H6.86559C6.7636 7.125 6.66681 7.14879 6.58027 7.1918C6.38938 7.28662 6.24767 7.47334 6.2133 7.70192L5.33308 13.464L5.30786 13.6319C5.36571 13.2527 5.67924 12.9736 6.05126 12.9736H7.6C10.6417 12.9736 13.0233 11.6967 13.7194 8.00317C13.7403 7.89385 13.7578 7.78746 13.7734 7.68335C13.5973 7.58673 13.4065 7.50413 13.2012 7.43375C13.1504 7.41631 13.0981 7.39953 13.0453 7.38324" fill="#22284F"/>
<path fill-rule="evenodd" clip-rule="evenodd" d="M6.2136 7.70182C6.24796 7.47324 6.38967 7.28652 6.58056 7.19235C6.66773 7.14918 6.76389 7.12539 6.86588 7.12539H11.0033C11.4933 7.12539 11.9509 7.15863 12.3685 7.22836C12.4878 7.24807 12.6037 7.27088 12.7169 7.29646C12.8294 7.32253 12.9391 7.35169 13.0455 7.38363C13.0984 7.39992 13.1507 7.41686 13.2019 7.43365C13.4073 7.50403 13.5982 7.58729 13.7743 7.68325C13.9814 6.31809 13.7725 5.3886 13.0585 4.54692C12.2711 3.6202 10.8502 3.22363 9.03191 3.22363H3.75311C3.38173 3.22363 3.06489 3.50273 3.00751 3.88267L0.80885 18.2875C0.765501 18.5724 0.978147 18.8295 1.25621 18.8295H4.5151L6.2136 7.70182" fill="#28356A"/>
<path d="M24.6733 12.7578H21.7124V11.2031H24.6733C25.189 11.2031 25.6056 11.1198 25.9233 10.9531C26.241 10.7865 26.4728 10.5573 26.6187 10.2656C26.7697 9.96875 26.8452 9.63021 26.8452 9.25C26.8452 8.89062 26.7697 8.55469 26.6187 8.24219C26.4728 7.92448 26.241 7.66927 25.9233 7.47656C25.6056 7.28385 25.189 7.1875 24.6733 7.1875H22.314V17H20.353V5.625H24.6733C25.5535 5.625 26.3009 5.78125 26.9155 6.09375C27.5353 6.40104 28.0067 6.82812 28.3296 7.375C28.6525 7.91667 28.814 8.53646 28.814 9.23438C28.814 9.96875 28.6525 10.599 28.3296 11.125C28.0067 11.651 27.5353 12.0547 26.9155 12.3359C26.3009 12.6172 25.5535 12.7578 24.6733 12.7578ZM35.0562 15.3047V11.2734C35.0562 10.9714 35.0015 10.7109 34.8921 10.4922C34.7827 10.2734 34.616 10.1042 34.3921 9.98438C34.1733 9.86458 33.8973 9.80469 33.564 9.80469C33.2567 9.80469 32.991 9.85677 32.7671 9.96094C32.5431 10.0651 32.3687 10.2057 32.2437 10.3828C32.1187 10.5599 32.0562 10.7604 32.0562 10.9844H30.1812C30.1812 10.651 30.2619 10.3281 30.4233 10.0156C30.5848 9.70312 30.8192 9.42448 31.1265 9.17969C31.4338 8.9349 31.8009 8.74219 32.228 8.60156C32.6551 8.46094 33.1343 8.39062 33.6655 8.39062C34.3009 8.39062 34.8634 8.4974 35.353 8.71094C35.8478 8.92448 36.2358 9.2474 36.5171 9.67969C36.8035 10.1068 36.9468 10.6432 36.9468 11.2891V15.0469C36.9468 15.4323 36.9728 15.7786 37.0249 16.0859C37.0822 16.388 37.1629 16.651 37.2671 16.875V17H35.3374C35.2489 16.7969 35.1785 16.5391 35.1265 16.2266C35.0796 15.9089 35.0562 15.6016 35.0562 15.3047ZM35.3296 11.8594L35.3452 13.0234H33.9937C33.6447 13.0234 33.3374 13.0573 33.0718 13.125C32.8062 13.1875 32.5848 13.2812 32.4077 13.4062C32.2306 13.5312 32.0978 13.6823 32.0093 13.8594C31.9207 14.0365 31.8765 14.237 31.8765 14.4609C31.8765 14.6849 31.9285 14.8906 32.0327 15.0781C32.1369 15.2604 32.2879 15.4036 32.4858 15.5078C32.689 15.612 32.9338 15.6641 33.2202 15.6641C33.6056 15.6641 33.9416 15.5859 34.228 15.4297C34.5197 15.2682 34.7489 15.0729 34.9155 14.8438C35.0822 14.6094 35.1707 14.388 35.1812 14.1797L35.7905 15.0156C35.728 15.2292 35.6213 15.4583 35.4702 15.7031C35.3192 15.9479 35.1213 16.1823 34.8765 16.4062C34.6369 16.625 34.3478 16.8047 34.0093 16.9453C33.6759 17.0859 33.2905 17.1562 32.853 17.1562C32.3009 17.1562 31.8088 17.0469 31.3765 16.8281C30.9442 16.6042 30.6056 16.3047 30.3608 15.9297C30.116 15.5495 29.9937 15.1198 29.9937 14.6406C29.9937 14.1927 30.077 13.7969 30.2437 13.4531C30.4155 13.1042 30.6655 12.8125 30.9937 12.5781C31.327 12.3438 31.7332 12.1667 32.2124 12.0469C32.6916 11.9219 33.2384 11.8594 33.853 11.8594H35.3296ZM41.2437 16.0781L43.5405 8.54688H45.5562L42.1655 18.2891C42.0874 18.4974 41.9858 18.724 41.8608 18.9688C41.7358 19.2135 41.5718 19.4453 41.3687 19.6641C41.1707 19.888 40.9233 20.0677 40.6265 20.2031C40.3296 20.3438 39.9702 20.4141 39.5483 20.4141C39.3817 20.4141 39.2202 20.3984 39.064 20.3672C38.9129 20.3411 38.7697 20.3125 38.6343 20.2812L38.6265 18.8438C38.6785 18.849 38.741 18.8542 38.814 18.8594C38.8921 18.8646 38.9546 18.8672 39.0015 18.8672C39.314 18.8672 39.5744 18.8281 39.7827 18.75C39.991 18.6771 40.1603 18.5573 40.2905 18.3906C40.4259 18.224 40.5405 18 40.6343 17.7188L41.2437 16.0781ZM39.9468 8.54688L41.9546 14.875L42.2905 16.8594L40.9858 17.1953L37.9155 8.54688H39.9468ZM51.1421 12.7578H48.1812V11.2031H51.1421C51.6577 11.2031 52.0744 11.1198 52.3921 10.9531C52.7098 10.7865 52.9416 10.5573 53.0874 10.2656C53.2384 9.96875 53.314 9.63021 53.314 9.25C53.314 8.89062 53.2384 8.55469 53.0874 8.24219C52.9416 7.92448 52.7098 7.66927 52.3921 7.47656C52.0744 7.28385 51.6577 7.1875 51.1421 7.1875H48.7827V17H46.8218V5.625H51.1421C52.0223 5.625 52.7697 5.78125 53.3843 6.09375C54.0041 6.40104 54.4754 6.82812 54.7983 7.375C55.1213 7.91667 55.2827 8.53646 55.2827 9.23438C55.2827 9.96875 55.1213 10.599 54.7983 11.125C54.4754 11.651 54.0041 12.0547 53.3843 12.3359C52.7697 12.6172 52.0223 12.7578 51.1421 12.7578ZM61.5249 15.3047V11.2734C61.5249 10.9714 61.4702 10.7109 61.3608 10.4922C61.2515 10.2734 61.0848 10.1042 60.8608 9.98438C60.6421 9.86458 60.366 9.80469 60.0327 9.80469C59.7254 9.80469 59.4598 9.85677 59.2358 9.96094C59.0119 10.0651 58.8374 10.2057 58.7124 10.3828C58.5874 10.5599 58.5249 10.7604 58.5249 10.9844H56.6499C56.6499 10.651 56.7306 10.3281 56.8921 10.0156C57.0535 9.70312 57.2879 9.42448 57.5952 9.17969C57.9025 8.9349 58.2697 8.74219 58.6968 8.60156C59.1239 8.46094 59.603 8.39062 60.1343 8.39062C60.7697 8.39062 61.3322 8.4974 61.8218 8.71094C62.3166 8.92448 62.7046 9.2474 62.9858 9.67969C63.2723 10.1068 63.4155 10.6432 63.4155 11.2891V15.0469C63.4155 15.4323 63.4416 15.7786 63.4937 16.0859C63.5509 16.388 63.6317 16.651 63.7358 16.875V17H61.8062C61.7176 16.7969 61.6473 16.5391 61.5952 16.2266C61.5483 15.9089 61.5249 15.6016 61.5249 15.3047ZM61.7983 11.8594L61.814 13.0234H60.4624C60.1134 13.0234 59.8062 13.0573 59.5405 13.125C59.2749 13.1875 59.0535 13.2812 58.8765 13.4062C58.6994 13.5312 58.5666 13.6823 58.478 13.8594C58.3895 14.0365 58.3452 14.237 58.3452 14.4609C58.3452 14.6849 58.3973 14.8906 58.5015 15.0781C58.6056 15.2604 58.7567 15.4036 58.9546 15.5078C59.1577 15.612 59.4025 15.6641 59.689 15.6641C60.0744 15.6641 60.4103 15.5859 60.6968 15.4297C60.9884 15.2682 61.2176 15.0729 61.3843 14.8438C61.5509 14.6094 61.6395 14.388 61.6499 14.1797L62.2593 15.0156C62.1968 15.2292 62.09 15.4583 61.939 15.7031C61.7879 15.9479 61.59 16.1823 61.3452 16.4062C61.1056 16.625 60.8166 16.8047 60.478 16.9453C60.1447 17.0859 59.7593 17.1562 59.3218 17.1562C58.7697 17.1562 58.2775 17.0469 57.8452 16.8281C57.4129 16.6042 57.0744 16.3047 56.8296 15.9297C56.5848 15.5495 56.4624 15.1198 56.4624 14.6406C56.4624 14.1927 56.5457 13.7969 56.7124 13.4531C56.8843 13.1042 57.1343 12.8125 57.4624 12.5781C57.7957 12.3438 58.202 12.1667 58.6812 12.0469C59.1603 11.9219 59.7072 11.8594 60.3218 11.8594H61.7983ZM67.3999 5V17H65.5093V5H67.3999Z" fill="#0A2540"/>
</svg>
