<svg width="16" height="18" viewBox="0 0 16 18" fill="none" xmlns="http://www.w3.org/2000/svg">
<path fill-rule="evenodd" clip-rule="evenodd" d="M4.89202 17.1814L5.18632 15.2492L4.53073 15.2334H1.40015L3.57579 0.975256C3.58257 0.932081 3.60448 0.892001 3.63648 0.863489C3.66864 0.834977 3.70962 0.819336 3.7525 0.819336H9.03113C10.7837 0.819336 11.993 1.19618 12.6244 1.94011C12.9204 2.28909 13.1089 2.65389 13.2002 3.05517C13.2959 3.47634 13.2975 3.97945 13.2041 4.5932L13.1974 4.63784V5.03114L13.4934 5.2045C13.7426 5.34119 13.9408 5.4976 14.0927 5.67666C14.3459 5.97514 14.5097 6.35443 14.5789 6.80394C14.6504 7.26633 14.6268 7.81669 14.5097 8.43972C14.3746 9.15627 14.1562 9.78044 13.8613 10.2911C13.5902 10.7616 13.2446 11.152 12.8343 11.4543C12.4426 11.7418 11.9773 11.9599 11.4511 12.0995C10.9412 12.2367 10.3598 12.306 9.72219 12.306H9.3114C9.01774 12.306 8.73242 12.4153 8.50842 12.6113C8.2838 12.8114 8.13531 13.0848 8.08975 13.3837L8.0587 13.5577L7.53867 16.9634L7.51518 17.0883C7.50888 17.1279 7.49816 17.1476 7.48239 17.161C7.46837 17.1732 7.44819 17.1814 7.42848 17.1814H4.89202Z" fill="#28356A"/>
<path fill-rule="evenodd" clip-rule="evenodd" d="M13.7738 4.68311C13.7582 4.78722 13.74 4.89361 13.7199 5.00293C13.0238 8.69712 10.6421 9.97332 7.60041 9.97332H6.05167C5.67966 9.97332 5.36613 10.2524 5.30828 10.6317L4.29076 17.3027C4.25308 17.5518 4.43878 17.7762 4.68185 17.7762H7.42875C7.75395 17.7762 8.03028 17.532 8.08151 17.2004L8.10846 17.0562L8.62565 13.6639L8.65891 13.4779C8.70951 13.1452 8.98648 12.9008 9.31167 12.9008H9.72246C12.3838 12.9008 14.4672 11.7841 15.0761 8.55228C15.3304 7.20227 15.1988 6.07498 14.5257 5.28219C14.322 5.04317 14.0693 4.84473 13.7738 4.68311Z" fill="#298FC2"/>
<path fill-rule="evenodd" clip-rule="evenodd" d="M13.0453 4.38324C12.9389 4.35114 12.8291 4.32214 12.7166 4.29591C12.6034 4.27033 12.4875 4.24768 12.3682 4.22781C11.9507 4.15807 11.493 4.125 11.003 4.125H6.86559C6.7636 4.125 6.66681 4.14879 6.58027 4.1918C6.38938 4.28662 6.24767 4.47334 6.2133 4.70192L5.33308 10.464L5.30786 10.6319C5.36571 10.2527 5.67924 9.97356 6.05126 9.97356H7.6C10.6417 9.97356 13.0233 8.69671 13.7194 5.00317C13.7403 4.89385 13.7578 4.78746 13.7734 4.68335C13.5973 4.58673 13.4065 4.50413 13.2012 4.43375C13.1504 4.41631 13.0981 4.39953 13.0453 4.38324Z" fill="#22284F"/>
<path fill-rule="evenodd" clip-rule="evenodd" d="M6.2136 4.70182C6.24796 4.47324 6.38967 4.28652 6.58056 4.19235C6.66773 4.14918 6.76389 4.12539 6.86588 4.12539H11.0033C11.4933 4.12539 11.9509 4.15863 12.3685 4.22836C12.4878 4.24807 12.6037 4.27088 12.7169 4.29646C12.8294 4.32253 12.9391 4.35169 13.0455 4.38363C13.0984 4.39992 13.1507 4.41686 13.2019 4.43365C13.4073 4.50403 13.5982 4.58729 13.7743 4.68325C13.9814 3.31809 13.7725 2.3886 13.0585 1.54692C12.2711 0.620195 10.8502 0.223633 9.03191 0.223633H3.75311C3.38173 0.223633 3.06489 0.502725 3.00751 0.882669L0.80885 15.2875C0.765501 15.5724 0.978147 15.8295 1.25621 15.8295H4.5151L6.2136 4.70182Z" fill="#28356A"/>
</svg>
