<svg width="48" height="48" viewBox="0 0 48 48" fill="none" xmlns="http://www.w3.org/2000/svg">
<path d="M40 6H8C6.93913 6 5.92172 6.42143 5.17157 7.17157C4.42143 7.92172 4 8.93913 4 10V22C4 27.3043 6.10714 32.3914 9.85786 36.1421C11.715 37.9993 13.9198 39.4725 16.3463 40.4776C18.7728 41.4827 21.3736 42 24 42C29.3043 42 34.3914 39.8929 38.1421 36.1421C41.8929 32.3914 44 27.3043 44 22V10C44 8.93913 43.5786 7.92172 42.8284 7.17157C42.0783 6.42143 41.0609 6 40 6Z" stroke="#FF6F3C" stroke-width="2" stroke-linecap="round" stroke-linejoin="round"/>
<path d="M16 20L24 28L32 20" stroke="#FF6F3C" stroke-width="2" stroke-linecap="round" stroke-linejoin="round"/>
</svg>
