<svg width="48" height="48" viewBox="0 0 48 48" fill="none" xmlns="http://www.w3.org/2000/svg">
<path d="M2 8V20H14" stroke="#FF6F3C" stroke-width="2" stroke-linecap="round" stroke-linejoin="round"/>
<path d="M46 40V28H34" stroke="#FF6F3C" stroke-width="2" stroke-linecap="round" stroke-linejoin="round"/>
<path d="M40.98 17.9999C39.9657 15.1335 38.2417 12.5707 35.9691 10.5507C33.6964 8.53077 30.9491 7.11944 27.9834 6.44842C25.0178 5.77741 21.9305 5.86859 19.0096 6.71345C16.0887 7.55832 13.4295 9.12933 11.28 11.2799L2 19.9999M46 27.9999L36.72 36.7199C34.5705 38.8705 31.9113 40.4415 28.9904 41.2864C26.0695 42.1312 22.9822 42.2224 20.0166 41.5514C17.0509 40.8804 14.3036 39.469 12.0309 37.4491C9.75827 35.4291 8.03434 32.8663 7.02 29.9999" stroke="#FF6F3C" stroke-width="2" stroke-linecap="round" stroke-linejoin="round"/>
</svg>
