<svg width="24" height="25" viewBox="0 0 24 25" fill="none" xmlns="http://www.w3.org/2000/svg">
<g clip-path="url(#clip0_91_15032)">
<path d="M17.0725 0.693359H13.0278V17.0412C13.0278 18.989 11.4722 20.589 9.53626 20.589C7.60034 20.589 6.04469 18.989 6.04469 17.0412C6.04469 15.1282 7.56577 13.5629 9.43257 13.4934V9.38903C5.31872 9.45856 2 12.8325 2 17.0412C2 21.2847 5.38786 24.6934 9.57085 24.6934C13.7538 24.6934 17.1416 21.2499 17.1416 17.0412V8.65856C18.6627 9.77163 20.5295 10.4325 22.5 10.4673V6.36293C19.4579 6.25858 17.0725 3.75423 17.0725 0.693359Z" fill="#555555"/>
</g>
<defs>
<clipPath id="clip0_91_15032">
<rect width="24" height="24" fill="white" transform="translate(0 0.693359)"/>
</clipPath>
</defs>
</svg>
