<svg width="24" height="25" viewBox="0 0 24 25" fill="none" xmlns="http://www.w3.org/2000/svg">
<path d="M7.55016 22.4433C16.6045 22.4433 21.5583 14.9401 21.5583 8.43522C21.5583 8.22428 21.5536 8.00866 21.5442 7.79772C22.5079 7.10082 23.3395 6.23761 24 5.24866C23.1025 5.64796 22.1496 5.90874 21.1739 6.0221C22.2013 5.40627 22.9705 4.43883 23.3391 3.29913C22.3726 3.87192 21.3156 4.27597 20.2134 4.49397C19.4708 3.70492 18.489 3.18248 17.4197 3.00741C16.3504 2.83235 15.2532 3.01441 14.2977 3.52546C13.3423 4.0365 12.5818 4.84807 12.1338 5.83467C11.6859 6.82128 11.5754 7.92797 11.8195 8.98366C9.86249 8.88545 7.94794 8.37706 6.19998 7.49146C4.45203 6.60585 2.90969 5.3628 1.67297 3.84288C1.0444 4.9266 0.852057 6.209 1.13503 7.42945C1.418 8.6499 2.15506 9.71681 3.19641 10.4133C2.41463 10.3885 1.64998 10.178 0.965625 9.79928V9.86022C0.964925 10.9975 1.3581 12.0999 2.07831 12.9801C2.79852 13.8603 3.80132 14.4639 4.91625 14.6883C4.19206 14.8865 3.43198 14.9154 2.69484 14.7727C3.00945 15.7508 3.62157 16.6062 4.44577 17.2197C5.26997 17.8331 6.26512 18.174 7.29234 18.1946C5.54842 19.5645 3.39417 20.3075 1.17656 20.304C0.783287 20.3034 0.390399 20.2793 0 20.2318C2.25286 21.6771 4.87353 22.4447 7.55016 22.4433Z" fill="#555555"/>
</svg>
