<svg width="30" height="30" viewBox="0 0 30 30" fill="none" xmlns="http://www.w3.org/2000/svg">
<path d="M19.6877 6.5C19.6877 7.7432 19.1939 8.93549 18.3148 9.81456C17.4357 10.6936 16.2434 11.1875 15.0002 11.1875C13.757 11.1875 12.5647 10.6936 11.6857 9.81456C10.8066 8.93549 10.3127 7.7432 10.3127 6.5C10.3127 5.2568 10.8066 4.06451 11.6857 3.18544C12.5647 2.30636 13.757 1.8125 15.0002 1.8125C16.2434 1.8125 17.4357 2.30636 18.3148 3.18544C19.1939 4.06451 19.6877 5.2568 19.6877 6.5ZM5.62646 24.1475C5.66663 21.6879 6.67189 19.3427 8.42544 17.6176C10.179 15.8924 12.5403 14.9256 15.0002 14.9256C17.4601 14.9256 19.8214 15.8924 21.575 17.6176C23.3285 19.3427 24.3338 21.6879 24.374 24.1475C21.4332 25.496 18.2354 26.1919 15.0002 26.1875C11.6552 26.1875 8.48021 25.4575 5.62646 24.1475Z" stroke="#FF6F3C" stroke-width="1.875" stroke-linecap="round" stroke-linejoin="round"/>
</svg>
