<svg width="156" height="37" viewBox="0 0 156 37" fill="none" xmlns="http://www.w3.org/2000/svg">
<rect x="0.5" width="155.25" height="36.75" rx="6.75" fill="#3B5999"/>
<rect x="6.5" y="6" width="24.75" height="24.75" rx="2.25" fill="#F6F9FC"/>
<g clip-path="url(#clip0_95_6858)">
<path d="M25.625 18.375C25.625 14.6471 22.6029 11.625 18.875 11.625C15.1471 11.625 12.125 14.6471 12.125 18.375C12.125 21.7441 14.5934 24.5366 17.8203 25.043V20.3262H16.1064V18.375H17.8203V16.8879C17.8203 15.1962 18.8281 14.2617 20.3699 14.2617C21.1082 14.2617 21.8809 14.3936 21.8809 14.3936V16.0547H21.0297C20.1913 16.0547 19.9297 16.575 19.9297 17.1094V18.375H21.8018L21.5025 20.3262H19.9297V25.043C23.1566 24.5366 25.625 21.7441 25.625 18.375Z" fill="#3B5999"/>
<path d="M21.5025 20.3262L21.8018 18.375H19.9297V17.1094C19.9297 16.5756 20.1913 16.0547 21.0297 16.0547H21.8809V14.3936C21.8809 14.3936 21.1084 14.2617 20.3699 14.2617C18.8281 14.2617 17.8203 15.1962 17.8203 16.8879V18.375H16.1064V20.3262H17.8203V25.043C18.5192 25.1523 19.2308 25.1523 19.9297 25.043V20.3262H21.5025Z" fill="white"/>
</g>
<path d="M41.9727 21.709V22.875H37.6895V21.709H41.9727ZM38.0996 14.3438V22.875H36.6289V14.3438H38.0996ZM42.6992 19.7754V19.6406C42.6992 19.1836 42.7656 18.7598 42.8984 18.3691C43.0312 17.9746 43.2227 17.6328 43.4727 17.3438C43.7266 17.0508 44.0352 16.8242 44.3984 16.6641C44.7656 16.5 45.1797 16.418 45.6406 16.418C46.1055 16.418 46.5195 16.5 46.8828 16.6641C47.25 16.8242 47.5605 17.0508 47.8145 17.3438C48.0684 17.6328 48.2617 17.9746 48.3945 18.3691C48.5273 18.7598 48.5938 19.1836 48.5938 19.6406V19.7754C48.5938 20.2324 48.5273 20.6562 48.3945 21.0469C48.2617 21.4375 48.0684 21.7793 47.8145 22.0723C47.5605 22.3613 47.252 22.5879 46.8887 22.752C46.5254 22.9121 46.1133 22.9922 45.6523 22.9922C45.1875 22.9922 44.7715 22.9121 44.4043 22.752C44.041 22.5879 43.7324 22.3613 43.4785 22.0723C43.2246 21.7793 43.0312 21.4375 42.8984 21.0469C42.7656 20.6562 42.6992 20.2324 42.6992 19.7754ZM44.1113 19.6406V19.7754C44.1113 20.0605 44.1406 20.3301 44.1992 20.584C44.2578 20.8379 44.3496 21.0605 44.4746 21.252C44.5996 21.4434 44.7598 21.5938 44.9551 21.7031C45.1504 21.8125 45.3828 21.8672 45.6523 21.8672C45.9141 21.8672 46.1406 21.8125 46.332 21.7031C46.5273 21.5938 46.6875 21.4434 46.8125 21.252C46.9375 21.0605 47.0293 20.8379 47.0879 20.584C47.1504 20.3301 47.1816 20.0605 47.1816 19.7754V19.6406C47.1816 19.3594 47.1504 19.0938 47.0879 18.8438C47.0293 18.5898 46.9355 18.3652 46.8066 18.1699C46.6816 17.9746 46.5215 17.8223 46.3262 17.7129C46.1348 17.5996 45.9062 17.543 45.6406 17.543C45.375 17.543 45.1445 17.5996 44.9492 17.7129C44.7578 17.8223 44.5996 17.9746 44.4746 18.1699C44.3496 18.3652 44.2578 18.5898 44.1992 18.8438C44.1406 19.0938 44.1113 19.3594 44.1113 19.6406ZM53.8379 16.5352H55.1211V22.6992C55.1211 23.2695 55 23.7539 54.7578 24.1523C54.5156 24.5508 54.1777 24.8535 53.7441 25.0605C53.3105 25.2715 52.8086 25.377 52.2383 25.377C51.9961 25.377 51.7266 25.3418 51.4297 25.2715C51.1367 25.2012 50.8516 25.0879 50.5742 24.9316C50.3008 24.7793 50.0723 24.5781 49.8887 24.3281L50.5508 23.4961C50.7773 23.7656 51.0273 23.9629 51.3008 24.0879C51.5742 24.2129 51.8613 24.2754 52.1621 24.2754C52.4863 24.2754 52.7617 24.2148 52.9883 24.0938C53.2188 23.9766 53.3965 23.8027 53.5215 23.5723C53.6465 23.3418 53.709 23.0605 53.709 22.7285V17.9707L53.8379 16.5352ZM49.5312 19.7754V19.6523C49.5312 19.1719 49.5898 18.7344 49.707 18.3398C49.8242 17.9414 49.9922 17.5996 50.2109 17.3145C50.4297 17.0254 50.6953 16.8047 51.0078 16.6523C51.3203 16.4961 51.6738 16.418 52.0684 16.418C52.4785 16.418 52.8281 16.4922 53.1172 16.6406C53.4102 16.7891 53.6543 17.002 53.8496 17.2793C54.0449 17.5527 54.1973 17.8809 54.3066 18.2637C54.4199 18.6426 54.5039 19.0645 54.5586 19.5293V19.9219C54.5078 20.375 54.4219 20.7891 54.3008 21.1641C54.1797 21.5391 54.0195 21.8633 53.8203 22.1367C53.6211 22.4102 53.375 22.6211 53.082 22.7695C52.793 22.918 52.4512 22.9922 52.0566 22.9922C51.6699 22.9922 51.3203 22.9121 51.0078 22.752C50.6992 22.5918 50.4336 22.3672 50.2109 22.0781C49.9922 21.7891 49.8242 21.4492 49.707 21.0586C49.5898 20.6641 49.5312 20.2363 49.5312 19.7754ZM50.9434 19.6523V19.7754C50.9434 20.0645 50.9707 20.334 51.0254 20.584C51.084 20.834 51.1719 21.0547 51.2891 21.2461C51.4102 21.4336 51.5625 21.582 51.7461 21.6914C51.9336 21.7969 52.1543 21.8496 52.4082 21.8496C52.7402 21.8496 53.0117 21.7793 53.2227 21.6387C53.4375 21.498 53.6016 21.3086 53.7148 21.0703C53.832 20.8281 53.9141 20.5586 53.9609 20.2617V19.2012C53.9375 18.9707 53.8887 18.7559 53.8145 18.5566C53.7441 18.3574 53.6484 18.1836 53.5273 18.0352C53.4062 17.8828 53.2539 17.7656 53.0703 17.6836C52.8867 17.5977 52.6699 17.5547 52.4199 17.5547C52.166 17.5547 51.9453 17.6094 51.7578 17.7188C51.5703 17.8281 51.416 17.9785 51.2949 18.1699C51.1777 18.3613 51.0898 18.584 51.0312 18.8379C50.9727 19.0918 50.9434 19.3633 50.9434 19.6523ZM61.2852 14.3438V22.875H59.8145V14.3438H61.2852ZM64.373 17.8887V22.875H62.9609V16.5352H64.291L64.373 17.8887ZM64.1211 19.4707L63.6641 19.4648C63.668 19.0156 63.7305 18.6035 63.8516 18.2285C63.9766 17.8535 64.1484 17.5312 64.3672 17.2617C64.5898 16.9922 64.8555 16.7852 65.1641 16.6406C65.4727 16.4922 65.8164 16.418 66.1953 16.418C66.5 16.418 66.7754 16.4609 67.0215 16.5469C67.2715 16.6289 67.4844 16.7637 67.6602 16.9512C67.8398 17.1387 67.9766 17.3828 68.0703 17.6836C68.1641 17.9805 68.2109 18.3457 68.2109 18.7793V22.875H66.793V18.7734C66.793 18.4688 66.748 18.2285 66.6582 18.0527C66.5723 17.873 66.4453 17.7461 66.2773 17.6719C66.1133 17.5938 65.9082 17.5547 65.6621 17.5547C65.4199 17.5547 65.2031 17.6055 65.0117 17.707C64.8203 17.8086 64.6582 17.9473 64.5254 18.123C64.3965 18.2988 64.2969 18.502 64.2266 18.7324C64.1562 18.9629 64.1211 19.209 64.1211 19.4707ZM74.3633 21.4688L75.8281 16.5352H76.7305L76.4844 18.0117L75.0078 22.875H74.1992L74.3633 21.4688ZM73.502 16.5352L74.6445 21.4922L74.7383 22.875H73.8359L72.1191 16.5352H73.502ZM78.1016 21.4336L79.209 16.5352H80.5859L78.875 22.875H77.9727L78.1016 21.4336ZM76.8828 16.5352L78.3301 21.4102L78.5117 22.875H77.7031L76.209 18.0059L75.9629 16.5352H76.8828ZM83.0586 16.5352V22.875H81.6406V16.5352H83.0586ZM81.5469 14.8711C81.5469 14.6562 81.6172 14.4785 81.7578 14.3379C81.9023 14.1934 82.1016 14.1211 82.3555 14.1211C82.6055 14.1211 82.8027 14.1934 82.9473 14.3379C83.0918 14.4785 83.1641 14.6562 83.1641 14.8711C83.1641 15.082 83.0918 15.2578 82.9473 15.3984C82.8027 15.5391 82.6055 15.6094 82.3555 15.6094C82.1016 15.6094 81.9023 15.5391 81.7578 15.3984C81.6172 15.2578 81.5469 15.082 81.5469 14.8711ZM87.5117 16.5352V17.5664H83.9375V16.5352H87.5117ZM84.9688 14.9824H86.3809V21.123C86.3809 21.3184 86.4082 21.4688 86.4629 21.5742C86.5215 21.6758 86.6016 21.7441 86.7031 21.7793C86.8047 21.8145 86.9238 21.832 87.0605 21.832C87.1582 21.832 87.252 21.8262 87.3418 21.8145C87.4316 21.8027 87.5039 21.791 87.5586 21.7793L87.5645 22.8574C87.4473 22.8926 87.3105 22.9238 87.1543 22.9512C87.002 22.9785 86.8262 22.9922 86.627 22.9922C86.3027 22.9922 86.0156 22.9355 85.7656 22.8223C85.5156 22.7051 85.3203 22.5156 85.1797 22.2539C85.0391 21.9922 84.9688 21.6445 84.9688 21.2109V14.9824ZM89.9961 13.875V22.875H88.5898V13.875H89.9961ZM89.75 19.4707L89.293 19.4648C89.2969 19.0273 89.3574 18.623 89.4746 18.252C89.5957 17.8809 89.7637 17.5586 89.9785 17.2852C90.1973 17.0078 90.459 16.7949 90.7637 16.6465C91.0684 16.4941 91.4062 16.418 91.7773 16.418C92.0898 16.418 92.3711 16.4609 92.6211 16.5469C92.875 16.6328 93.0938 16.7715 93.2773 16.9629C93.4609 17.1504 93.5996 17.3965 93.6934 17.7012C93.791 18.002 93.8398 18.3691 93.8398 18.8027V22.875H92.4219V18.791C92.4219 18.4863 92.377 18.2441 92.2871 18.0645C92.2012 17.8848 92.0742 17.7559 91.9062 17.6777C91.7383 17.5957 91.5332 17.5547 91.291 17.5547C91.0371 17.5547 90.8125 17.6055 90.6172 17.707C90.4258 17.8086 90.2656 17.9473 90.1367 18.123C90.0078 18.2988 89.9102 18.502 89.8438 18.7324C89.7812 18.9629 89.75 19.209 89.75 19.4707ZM99.8691 14.3438V22.875H98.3984V14.3438H99.8691ZM103.35 18.0762V19.2422H99.4941V18.0762H103.35ZM103.836 14.3438V15.5156H99.4941V14.3438H103.836ZM108.242 21.6035V18.5801C108.242 18.3535 108.201 18.1582 108.119 17.9941C108.037 17.8301 107.912 17.7031 107.744 17.6133C107.58 17.5234 107.373 17.4785 107.123 17.4785C106.893 17.4785 106.693 17.5176 106.525 17.5957C106.357 17.6738 106.227 17.7793 106.133 17.9121C106.039 18.0449 105.992 18.1953 105.992 18.3633H104.586C104.586 18.1133 104.646 17.8711 104.768 17.6367C104.889 17.4023 105.064 17.1934 105.295 17.0098C105.525 16.8262 105.801 16.6816 106.121 16.5762C106.441 16.4707 106.801 16.418 107.199 16.418C107.676 16.418 108.098 16.498 108.465 16.6582C108.836 16.8184 109.127 17.0605 109.338 17.3848C109.553 17.7051 109.66 18.1074 109.66 18.5918V21.4102C109.66 21.6992 109.68 21.959 109.719 22.1895C109.762 22.416 109.822 22.6133 109.9 22.7812V22.875H108.453C108.387 22.7227 108.334 22.5293 108.295 22.2949C108.26 22.0566 108.242 21.8262 108.242 21.6035ZM108.447 19.0195L108.459 19.8926H107.445C107.184 19.8926 106.953 19.918 106.754 19.9688C106.555 20.0156 106.389 20.0859 106.256 20.1797C106.123 20.2734 106.023 20.3867 105.957 20.5195C105.891 20.6523 105.857 20.8027 105.857 20.9707C105.857 21.1387 105.896 21.293 105.975 21.4336C106.053 21.5703 106.166 21.6777 106.314 21.7559C106.467 21.834 106.65 21.873 106.865 21.873C107.154 21.873 107.406 21.8145 107.621 21.6973C107.84 21.5762 108.012 21.4297 108.137 21.2578C108.262 21.082 108.328 20.916 108.336 20.7598L108.793 21.3867C108.746 21.5469 108.666 21.7188 108.553 21.9023C108.439 22.0859 108.291 22.2617 108.107 22.4297C107.928 22.5938 107.711 22.7285 107.457 22.834C107.207 22.9395 106.918 22.9922 106.59 22.9922C106.176 22.9922 105.807 22.9102 105.482 22.7461C105.158 22.5781 104.904 22.3535 104.721 22.0723C104.537 21.7871 104.445 21.4648 104.445 21.1055C104.445 20.7695 104.508 20.4727 104.633 20.2148C104.762 19.9531 104.949 19.7344 105.195 19.5586C105.445 19.3828 105.75 19.25 106.109 19.1602C106.469 19.0664 106.879 19.0195 107.34 19.0195H108.447ZM113.727 21.8672C113.957 21.8672 114.164 21.8223 114.348 21.7324C114.535 21.6387 114.686 21.5098 114.799 21.3457C114.916 21.1816 114.98 20.9922 114.992 20.7773H116.322C116.314 21.1875 116.193 21.5605 115.959 21.8965C115.725 22.2324 115.414 22.5 115.027 22.6992C114.641 22.8945 114.213 22.9922 113.744 22.9922C113.26 22.9922 112.838 22.9102 112.479 22.7461C112.119 22.5781 111.82 22.3477 111.582 22.0547C111.344 21.7617 111.164 21.4238 111.043 21.041C110.926 20.6582 110.867 20.248 110.867 19.8105V19.6055C110.867 19.168 110.926 18.7578 111.043 18.375C111.164 17.9883 111.344 17.6484 111.582 17.3555C111.82 17.0625 112.119 16.834 112.479 16.6699C112.838 16.502 113.258 16.418 113.738 16.418C114.246 16.418 114.691 16.5195 115.074 16.7227C115.457 16.9219 115.758 17.2012 115.977 17.5605C116.199 17.916 116.314 18.3301 116.322 18.8027H114.992C114.98 18.5684 114.922 18.3574 114.816 18.1699C114.715 17.9785 114.57 17.8262 114.383 17.7129C114.199 17.5996 113.979 17.543 113.721 17.543C113.436 17.543 113.199 17.6016 113.012 17.7188C112.824 17.832 112.678 17.9883 112.572 18.1875C112.467 18.3828 112.391 18.6035 112.344 18.8496C112.301 19.0918 112.279 19.3438 112.279 19.6055V19.8105C112.279 20.0723 112.301 20.3262 112.344 20.5723C112.387 20.8184 112.461 21.0391 112.566 21.2344C112.676 21.4258 112.824 21.5801 113.012 21.6973C113.199 21.8105 113.438 21.8672 113.727 21.8672ZM120.201 22.9922C119.732 22.9922 119.309 22.916 118.93 22.7637C118.555 22.6074 118.234 22.3906 117.969 22.1133C117.707 21.8359 117.506 21.5098 117.365 21.1348C117.225 20.7598 117.154 20.3555 117.154 19.9219V19.6875C117.154 19.1914 117.227 18.7422 117.371 18.3398C117.516 17.9375 117.717 17.5938 117.975 17.3086C118.232 17.0195 118.537 16.7988 118.889 16.6465C119.24 16.4941 119.621 16.418 120.031 16.418C120.484 16.418 120.881 16.4941 121.221 16.6465C121.561 16.7988 121.842 17.0137 122.064 17.291C122.291 17.5645 122.459 17.8906 122.568 18.2695C122.682 18.6484 122.738 19.0664 122.738 19.5234V20.127H117.84V19.1133H121.344V19.002C121.336 18.748 121.285 18.5098 121.191 18.2871C121.102 18.0645 120.963 17.8848 120.775 17.748C120.588 17.6113 120.338 17.543 120.025 17.543C119.791 17.543 119.582 17.5938 119.398 17.6953C119.219 17.793 119.068 17.9355 118.947 18.123C118.826 18.3105 118.732 18.5371 118.666 18.8027C118.604 19.0645 118.572 19.3594 118.572 19.6875V19.9219C118.572 20.1992 118.609 20.457 118.684 20.6953C118.762 20.9297 118.875 21.1348 119.023 21.3105C119.172 21.4863 119.352 21.625 119.562 21.7266C119.773 21.8242 120.014 21.873 120.283 21.873C120.623 21.873 120.926 21.8047 121.191 21.668C121.457 21.5312 121.688 21.3379 121.883 21.0879L122.627 21.8086C122.49 22.0078 122.312 22.1992 122.094 22.3828C121.875 22.5625 121.607 22.709 121.291 22.8223C120.979 22.9355 120.615 22.9922 120.201 22.9922ZM123.846 13.875H125.258V21.5215L125.123 22.875H123.846V13.875ZM129.395 19.6465V19.7695C129.395 20.2383 129.342 20.6699 129.236 21.0645C129.135 21.4551 128.979 21.7949 128.768 22.084C128.561 22.373 128.303 22.5977 127.994 22.7578C127.689 22.9141 127.336 22.9922 126.934 22.9922C126.539 22.9922 126.195 22.918 125.902 22.7695C125.609 22.6211 125.363 22.4102 125.164 22.1367C124.969 21.8633 124.811 21.5371 124.689 21.1582C124.568 20.7793 124.482 20.3613 124.432 19.9043V19.5117C124.482 19.0508 124.568 18.6328 124.689 18.2578C124.811 17.8789 124.969 17.5527 125.164 17.2793C125.363 17.002 125.607 16.7891 125.896 16.6406C126.189 16.4922 126.531 16.418 126.922 16.418C127.328 16.418 127.686 16.4961 127.994 16.6523C128.307 16.8086 128.566 17.0312 128.773 17.3203C128.98 17.6055 129.135 17.9453 129.236 18.3398C129.342 18.7344 129.395 19.1699 129.395 19.6465ZM127.982 19.7695V19.6465C127.982 19.3613 127.959 19.0938 127.912 18.8438C127.865 18.5898 127.787 18.3672 127.678 18.1758C127.572 17.9844 127.428 17.834 127.244 17.7246C127.064 17.6113 126.84 17.5547 126.57 17.5547C126.32 17.5547 126.105 17.5977 125.926 17.6836C125.746 17.7695 125.596 17.8867 125.475 18.0352C125.354 18.1836 125.258 18.3555 125.188 18.5508C125.121 18.7461 125.076 18.957 125.053 19.1836V20.2441C125.088 20.5371 125.162 20.8066 125.275 21.0527C125.393 21.2949 125.557 21.4902 125.768 21.6387C125.979 21.7832 126.25 21.8555 126.582 21.8555C126.844 21.8555 127.064 21.8027 127.244 21.6973C127.424 21.5918 127.566 21.4453 127.672 21.2578C127.781 21.0664 127.859 20.8438 127.906 20.5898C127.957 20.3359 127.982 20.0625 127.982 19.7695ZM130.32 19.7754V19.6406C130.32 19.1836 130.387 18.7598 130.52 18.3691C130.652 17.9746 130.844 17.6328 131.094 17.3438C131.348 17.0508 131.656 16.8242 132.02 16.6641C132.387 16.5 132.801 16.418 133.262 16.418C133.727 16.418 134.141 16.5 134.504 16.6641C134.871 16.8242 135.182 17.0508 135.436 17.3438C135.689 17.6328 135.883 17.9746 136.016 18.3691C136.148 18.7598 136.215 19.1836 136.215 19.6406V19.7754C136.215 20.2324 136.148 20.6562 136.016 21.0469C135.883 21.4375 135.689 21.7793 135.436 22.0723C135.182 22.3613 134.873 22.5879 134.51 22.752C134.146 22.9121 133.734 22.9922 133.273 22.9922C132.809 22.9922 132.393 22.9121 132.025 22.752C131.662 22.5879 131.354 22.3613 131.1 22.0723C130.846 21.7793 130.652 21.4375 130.52 21.0469C130.387 20.6562 130.32 20.2324 130.32 19.7754ZM131.732 19.6406V19.7754C131.732 20.0605 131.762 20.3301 131.82 20.584C131.879 20.8379 131.971 21.0605 132.096 21.252C132.221 21.4434 132.381 21.5938 132.576 21.7031C132.771 21.8125 133.004 21.8672 133.273 21.8672C133.535 21.8672 133.762 21.8125 133.953 21.7031C134.148 21.5938 134.309 21.4434 134.434 21.252C134.559 21.0605 134.65 20.8379 134.709 20.584C134.771 20.3301 134.803 20.0605 134.803 19.7754V19.6406C134.803 19.3594 134.771 19.0938 134.709 18.8438C134.65 18.5898 134.557 18.3652 134.428 18.1699C134.303 17.9746 134.143 17.8223 133.947 17.7129C133.756 17.5996 133.527 17.543 133.262 17.543C132.996 17.543 132.766 17.5996 132.57 17.7129C132.379 17.8223 132.221 17.9746 132.096 18.1699C131.971 18.3652 131.879 18.5898 131.82 18.8438C131.762 19.0938 131.732 19.3594 131.732 19.6406ZM137.129 19.7754V19.6406C137.129 19.1836 137.195 18.7598 137.328 18.3691C137.461 17.9746 137.652 17.6328 137.902 17.3438C138.156 17.0508 138.465 16.8242 138.828 16.6641C139.195 16.5 139.609 16.418 140.07 16.418C140.535 16.418 140.949 16.5 141.312 16.6641C141.68 16.8242 141.99 17.0508 142.244 17.3438C142.498 17.6328 142.691 17.9746 142.824 18.3691C142.957 18.7598 143.023 19.1836 143.023 19.6406V19.7754C143.023 20.2324 142.957 20.6562 142.824 21.0469C142.691 21.4375 142.498 21.7793 142.244 22.0723C141.99 22.3613 141.682 22.5879 141.318 22.752C140.955 22.9121 140.543 22.9922 140.082 22.9922C139.617 22.9922 139.201 22.9121 138.834 22.752C138.471 22.5879 138.162 22.3613 137.908 22.0723C137.654 21.7793 137.461 21.4375 137.328 21.0469C137.195 20.6562 137.129 20.2324 137.129 19.7754ZM138.541 19.6406V19.7754C138.541 20.0605 138.57 20.3301 138.629 20.584C138.688 20.8379 138.779 21.0605 138.904 21.252C139.029 21.4434 139.189 21.5938 139.385 21.7031C139.58 21.8125 139.812 21.8672 140.082 21.8672C140.344 21.8672 140.57 21.8125 140.762 21.7031C140.957 21.5938 141.117 21.4434 141.242 21.252C141.367 21.0605 141.459 20.8379 141.518 20.584C141.58 20.3301 141.611 20.0605 141.611 19.7754V19.6406C141.611 19.3594 141.58 19.0938 141.518 18.8438C141.459 18.5898 141.365 18.3652 141.236 18.1699C141.111 17.9746 140.951 17.8223 140.756 17.7129C140.564 17.5996 140.336 17.543 140.07 17.543C139.805 17.543 139.574 17.5996 139.379 17.7129C139.188 17.8223 139.029 17.9746 138.904 18.1699C138.779 18.3652 138.688 18.5898 138.629 18.8438C138.57 19.0938 138.541 19.3594 138.541 19.6406ZM145.631 13.875V22.875H144.213V13.875H145.631ZM149.568 16.5352L146.809 19.5938L145.297 21.1406L144.928 19.9453L146.07 18.5332L147.863 16.5352H149.568ZM148.168 22.875L146.111 19.8984L147.002 18.9082L149.803 22.875H148.168Z" fill="#F6F9FC"/>
<defs>
<clipPath id="clip0_95_6858">
<rect width="13.5" height="13.5" fill="white" transform="translate(12.125 11.625)"/>
</clipPath>
</defs>
</svg>
