<svg width="135" height="37" viewBox="0 0 135 37" fill="none" xmlns="http://www.w3.org/2000/svg">
<rect x="0.75" width="134.25" height="36.75" rx="6.75" fill="#050708"/>
<rect x="6.75" y="6" width="24.75" height="24.75" rx="2.25" fill="#F6F9FC"/>
<g clip-path="url(#clip0_95_6864)">
<path d="M24.099 21.2691C23.9119 21.7015 23.6904 22.0994 23.4337 22.4653C23.0838 22.9641 22.7974 23.3094 22.5766 23.5011C22.2344 23.8159 21.8678 23.977 21.4752 23.9862C21.1933 23.9862 20.8534 23.906 20.4577 23.7433C20.0607 23.5813 19.6959 23.5011 19.3623 23.5011C19.0125 23.5011 18.6372 23.5813 18.2359 23.7433C17.834 23.906 17.5102 23.9908 17.2626 23.9992C16.8861 24.0152 16.5108 23.8495 16.1362 23.5011C15.8971 23.2926 15.5981 22.9351 15.2398 22.4287C14.8554 21.8879 14.5394 21.2607 14.2918 20.5457C14.0267 19.7735 13.8938 19.0257 13.8938 18.3017C13.8938 17.4723 14.073 16.757 14.4319 16.1576C14.714 15.6762 15.0893 15.2964 15.559 15.0176C16.0287 14.7388 16.5362 14.5967 17.0828 14.5876C17.3818 14.5876 17.774 14.6801 18.2613 14.8619C18.7473 15.0443 19.0594 15.1368 19.1962 15.1368C19.2984 15.1368 19.6451 15.0286 20.2327 14.813C20.7884 14.613 21.2575 14.5302 21.6417 14.5628C22.6828 14.6469 23.465 15.0573 23.9852 15.7967C23.0541 16.3609 22.5934 17.1511 22.6026 18.1649C22.611 18.9545 22.8975 19.6115 23.4604 20.1333C23.7156 20.3754 24.0005 20.5626 24.3175 20.6955C24.2487 20.8948 24.1762 21.0858 24.099 21.2691ZM21.7112 11.8728C21.7112 12.4917 21.4851 13.0696 21.0344 13.6044C20.4905 14.2403 19.8327 14.6077 19.1193 14.5497C19.1102 14.4755 19.105 14.3973 19.105 14.3152C19.105 13.7211 19.3636 13.0852 19.8229 12.5653C20.0522 12.3021 20.3439 12.0832 20.6975 11.9086C21.0504 11.7366 21.3843 11.6415 21.6982 11.6252C21.7074 11.708 21.7112 11.7907 21.7112 11.8728V11.8728Z" fill="#050708"/>
</g>
<path d="M42.5742 21.709V22.875H38.291V21.709H42.5742ZM38.7012 14.3438V22.875H37.2305V14.3438H38.7012ZM43.3008 19.7754V19.6406C43.3008 19.1836 43.3672 18.7598 43.5 18.3691C43.6328 17.9746 43.8242 17.6328 44.0742 17.3438C44.3281 17.0508 44.6367 16.8242 45 16.6641C45.3672 16.5 45.7812 16.418 46.2422 16.418C46.707 16.418 47.1211 16.5 47.4844 16.6641C47.8516 16.8242 48.1621 17.0508 48.416 17.3438C48.6699 17.6328 48.8633 17.9746 48.9961 18.3691C49.1289 18.7598 49.1953 19.1836 49.1953 19.6406V19.7754C49.1953 20.2324 49.1289 20.6562 48.9961 21.0469C48.8633 21.4375 48.6699 21.7793 48.416 22.0723C48.1621 22.3613 47.8535 22.5879 47.4902 22.752C47.127 22.9121 46.7148 22.9922 46.2539 22.9922C45.7891 22.9922 45.373 22.9121 45.0059 22.752C44.6426 22.5879 44.334 22.3613 44.0801 22.0723C43.8262 21.7793 43.6328 21.4375 43.5 21.0469C43.3672 20.6562 43.3008 20.2324 43.3008 19.7754ZM44.7129 19.6406V19.7754C44.7129 20.0605 44.7422 20.3301 44.8008 20.584C44.8594 20.8379 44.9512 21.0605 45.0762 21.252C45.2012 21.4434 45.3613 21.5938 45.5566 21.7031C45.752 21.8125 45.9844 21.8672 46.2539 21.8672C46.5156 21.8672 46.7422 21.8125 46.9336 21.7031C47.1289 21.5938 47.2891 21.4434 47.4141 21.252C47.5391 21.0605 47.6309 20.8379 47.6895 20.584C47.752 20.3301 47.7832 20.0605 47.7832 19.7754V19.6406C47.7832 19.3594 47.752 19.0938 47.6895 18.8438C47.6309 18.5898 47.5371 18.3652 47.4082 18.1699C47.2832 17.9746 47.123 17.8223 46.9277 17.7129C46.7363 17.5996 46.5078 17.543 46.2422 17.543C45.9766 17.543 45.7461 17.5996 45.5508 17.7129C45.3594 17.8223 45.2012 17.9746 45.0762 18.1699C44.9512 18.3652 44.8594 18.5898 44.8008 18.8438C44.7422 19.0938 44.7129 19.3594 44.7129 19.6406ZM54.4395 16.5352H55.7227V22.6992C55.7227 23.2695 55.6016 23.7539 55.3594 24.1523C55.1172 24.5508 54.7793 24.8535 54.3457 25.0605C53.9121 25.2715 53.4102 25.377 52.8398 25.377C52.5977 25.377 52.3281 25.3418 52.0312 25.2715C51.7383 25.2012 51.4531 25.0879 51.1758 24.9316C50.9023 24.7793 50.6738 24.5781 50.4902 24.3281L51.1523 23.4961C51.3789 23.7656 51.6289 23.9629 51.9023 24.0879C52.1758 24.2129 52.4629 24.2754 52.7637 24.2754C53.0879 24.2754 53.3633 24.2148 53.5898 24.0938C53.8203 23.9766 53.998 23.8027 54.123 23.5723C54.248 23.3418 54.3105 23.0605 54.3105 22.7285V17.9707L54.4395 16.5352ZM50.1328 19.7754V19.6523C50.1328 19.1719 50.1914 18.7344 50.3086 18.3398C50.4258 17.9414 50.5938 17.5996 50.8125 17.3145C51.0312 17.0254 51.2969 16.8047 51.6094 16.6523C51.9219 16.4961 52.2754 16.418 52.6699 16.418C53.0801 16.418 53.4297 16.4922 53.7188 16.6406C54.0117 16.7891 54.2559 17.002 54.4512 17.2793C54.6465 17.5527 54.7988 17.8809 54.9082 18.2637C55.0215 18.6426 55.1055 19.0645 55.1602 19.5293V19.9219C55.1094 20.375 55.0234 20.7891 54.9023 21.1641C54.7812 21.5391 54.6211 21.8633 54.4219 22.1367C54.2227 22.4102 53.9766 22.6211 53.6836 22.7695C53.3945 22.918 53.0527 22.9922 52.6582 22.9922C52.2715 22.9922 51.9219 22.9121 51.6094 22.752C51.3008 22.5918 51.0352 22.3672 50.8125 22.0781C50.5938 21.7891 50.4258 21.4492 50.3086 21.0586C50.1914 20.6641 50.1328 20.2363 50.1328 19.7754ZM51.5449 19.6523V19.7754C51.5449 20.0645 51.5723 20.334 51.627 20.584C51.6855 20.834 51.7734 21.0547 51.8906 21.2461C52.0117 21.4336 52.1641 21.582 52.3477 21.6914C52.5352 21.7969 52.7559 21.8496 53.0098 21.8496C53.3418 21.8496 53.6133 21.7793 53.8242 21.6387C54.0391 21.498 54.2031 21.3086 54.3164 21.0703C54.4336 20.8281 54.5156 20.5586 54.5625 20.2617V19.2012C54.5391 18.9707 54.4902 18.7559 54.416 18.5566C54.3457 18.3574 54.25 18.1836 54.1289 18.0352C54.0078 17.8828 53.8555 17.7656 53.6719 17.6836C53.4883 17.5977 53.2715 17.5547 53.0215 17.5547C52.7676 17.5547 52.5469 17.6094 52.3594 17.7188C52.1719 17.8281 52.0176 17.9785 51.8965 18.1699C51.7793 18.3613 51.6914 18.584 51.6328 18.8379C51.5742 19.0918 51.5449 19.3633 51.5449 19.6523ZM61.6875 16.5352V22.875H60.2695V16.5352H61.6875ZM60.1758 14.8711C60.1758 14.6562 60.2461 14.4785 60.3867 14.3379C60.5312 14.1934 60.7305 14.1211 60.9844 14.1211C61.2344 14.1211 61.4316 14.1934 61.5762 14.3379C61.7207 14.4785 61.793 14.6562 61.793 14.8711C61.793 15.082 61.7207 15.2578 61.5762 15.3984C61.4316 15.5391 61.2344 15.6094 60.9844 15.6094C60.7305 15.6094 60.5312 15.5391 60.3867 15.3984C60.2461 15.2578 60.1758 15.082 60.1758 14.8711ZM64.6348 17.8887V22.875H63.2227V16.5352H64.5527L64.6348 17.8887ZM64.3828 19.4707L63.9258 19.4648C63.9297 19.0156 63.9922 18.6035 64.1133 18.2285C64.2383 17.8535 64.4102 17.5312 64.6289 17.2617C64.8516 16.9922 65.1172 16.7852 65.4258 16.6406C65.7344 16.4922 66.0781 16.418 66.457 16.418C66.7617 16.418 67.0371 16.4609 67.2832 16.5469C67.5332 16.6289 67.7461 16.7637 67.9219 16.9512C68.1016 17.1387 68.2383 17.3828 68.332 17.6836C68.4258 17.9805 68.4727 18.3457 68.4727 18.7793V22.875H67.0547V18.7734C67.0547 18.4688 67.0098 18.2285 66.9199 18.0527C66.834 17.873 66.707 17.7461 66.5391 17.6719C66.375 17.5938 66.1699 17.5547 65.9238 17.5547C65.6816 17.5547 65.4648 17.6055 65.2734 17.707C65.082 17.8086 64.9199 17.9473 64.7871 18.123C64.6582 18.2988 64.5586 18.502 64.4883 18.7324C64.418 18.9629 64.3828 19.209 64.3828 19.4707ZM74.625 21.4688L76.0898 16.5352H76.9922L76.7461 18.0117L75.2695 22.875H74.4609L74.625 21.4688ZM73.7637 16.5352L74.9062 21.4922L75 22.875H74.0977L72.3809 16.5352H73.7637ZM78.3633 21.4336L79.4707 16.5352H80.8477L79.1367 22.875H78.2344L78.3633 21.4336ZM77.1445 16.5352L78.5918 21.4102L78.7734 22.875H77.9648L76.4707 18.0059L76.2246 16.5352H77.1445ZM83.3203 16.5352V22.875H81.9023V16.5352H83.3203ZM81.8086 14.8711C81.8086 14.6562 81.8789 14.4785 82.0195 14.3379C82.1641 14.1934 82.3633 14.1211 82.6172 14.1211C82.8672 14.1211 83.0645 14.1934 83.209 14.3379C83.3535 14.4785 83.4258 14.6562 83.4258 14.8711C83.4258 15.082 83.3535 15.2578 83.209 15.3984C83.0645 15.5391 82.8672 15.6094 82.6172 15.6094C82.3633 15.6094 82.1641 15.5391 82.0195 15.3984C81.8789 15.2578 81.8086 15.082 81.8086 14.8711ZM87.7734 16.5352V17.5664H84.1992V16.5352H87.7734ZM85.2305 14.9824H86.6426V21.123C86.6426 21.3184 86.6699 21.4688 86.7246 21.5742C86.7832 21.6758 86.8633 21.7441 86.9648 21.7793C87.0664 21.8145 87.1855 21.832 87.3223 21.832C87.4199 21.832 87.5137 21.8262 87.6035 21.8145C87.6934 21.8027 87.7656 21.791 87.8203 21.7793L87.8262 22.8574C87.709 22.8926 87.5723 22.9238 87.416 22.9512C87.2637 22.9785 87.0879 22.9922 86.8887 22.9922C86.5645 22.9922 86.2773 22.9355 86.0273 22.8223C85.7773 22.7051 85.582 22.5156 85.4414 22.2539C85.3008 21.9922 85.2305 21.6445 85.2305 21.2109V14.9824ZM90.2578 13.875V22.875H88.8516V13.875H90.2578ZM90.0117 19.4707L89.5547 19.4648C89.5586 19.0273 89.6191 18.623 89.7363 18.252C89.8574 17.8809 90.0254 17.5586 90.2402 17.2852C90.459 17.0078 90.7207 16.7949 91.0254 16.6465C91.3301 16.4941 91.668 16.418 92.0391 16.418C92.3516 16.418 92.6328 16.4609 92.8828 16.5469C93.1367 16.6328 93.3555 16.7715 93.5391 16.9629C93.7227 17.1504 93.8613 17.3965 93.9551 17.7012C94.0527 18.002 94.1016 18.3691 94.1016 18.8027V22.875H92.6836V18.791C92.6836 18.4863 92.6387 18.2441 92.5488 18.0645C92.4629 17.8848 92.3359 17.7559 92.168 17.6777C92 17.5957 91.7949 17.5547 91.5527 17.5547C91.2988 17.5547 91.0742 17.6055 90.8789 17.707C90.6875 17.8086 90.5273 17.9473 90.3984 18.123C90.2695 18.2988 90.1719 18.502 90.1055 18.7324C90.043 18.9629 90.0117 19.209 90.0117 19.4707ZM101.982 15.4805L99.4336 22.875H97.8926L101.104 14.3438H102.088L101.982 15.4805ZM104.115 22.875L101.561 15.4805L101.449 14.3438H102.439L105.662 22.875H104.115ZM103.992 19.7109V20.877H99.3516V19.7109H103.992ZM107.789 17.7539V25.3125H106.377V16.5352H107.678L107.789 17.7539ZM111.92 19.6465V19.7695C111.92 20.2305 111.865 20.6582 111.756 21.0527C111.65 21.4434 111.492 21.7852 111.281 22.0781C111.074 22.3672 110.818 22.5918 110.514 22.752C110.209 22.9121 109.857 22.9922 109.459 22.9922C109.064 22.9922 108.719 22.9199 108.422 22.7754C108.129 22.627 107.881 22.418 107.678 22.1484C107.475 21.8789 107.311 21.5625 107.186 21.1992C107.064 20.832 106.979 20.4297 106.928 19.9922V19.5176C106.979 19.0527 107.064 18.6309 107.186 18.252C107.311 17.873 107.475 17.5469 107.678 17.2734C107.881 17 108.129 16.7891 108.422 16.6406C108.715 16.4922 109.057 16.418 109.447 16.418C109.846 16.418 110.199 16.4961 110.508 16.6523C110.816 16.8047 111.076 17.0234 111.287 17.3086C111.498 17.5898 111.656 17.9297 111.762 18.3281C111.867 18.7227 111.92 19.1621 111.92 19.6465ZM110.508 19.7695V19.6465C110.508 19.3535 110.48 19.082 110.426 18.832C110.371 18.5781 110.285 18.3555 110.168 18.1641C110.051 17.9727 109.9 17.8242 109.717 17.7188C109.537 17.6094 109.32 17.5547 109.066 17.5547C108.816 17.5547 108.602 17.5977 108.422 17.6836C108.242 17.7656 108.092 17.8809 107.971 18.0293C107.85 18.1777 107.756 18.3516 107.689 18.5508C107.623 18.7461 107.576 18.959 107.549 19.1895V20.3262C107.596 20.6074 107.676 20.8652 107.789 21.0996C107.902 21.334 108.062 21.5215 108.27 21.6621C108.48 21.7988 108.75 21.8672 109.078 21.8672C109.332 21.8672 109.549 21.8125 109.729 21.7031C109.908 21.5938 110.055 21.4434 110.168 21.252C110.285 21.0566 110.371 20.832 110.426 20.5781C110.48 20.3242 110.508 20.0547 110.508 19.7695ZM114.539 17.7539V25.3125H113.127V16.5352H114.428L114.539 17.7539ZM118.67 19.6465V19.7695C118.67 20.2305 118.615 20.6582 118.506 21.0527C118.4 21.4434 118.242 21.7852 118.031 22.0781C117.824 22.3672 117.568 22.5918 117.264 22.752C116.959 22.9121 116.607 22.9922 116.209 22.9922C115.814 22.9922 115.469 22.9199 115.172 22.7754C114.879 22.627 114.631 22.418 114.428 22.1484C114.225 21.8789 114.061 21.5625 113.936 21.1992C113.814 20.832 113.729 20.4297 113.678 19.9922V19.5176C113.729 19.0527 113.814 18.6309 113.936 18.252C114.061 17.873 114.225 17.5469 114.428 17.2734C114.631 17 114.879 16.7891 115.172 16.6406C115.465 16.4922 115.807 16.418 116.197 16.418C116.596 16.418 116.949 16.4961 117.258 16.6523C117.566 16.8047 117.826 17.0234 118.037 17.3086C118.248 17.5898 118.406 17.9297 118.512 18.3281C118.617 18.7227 118.67 19.1621 118.67 19.6465ZM117.258 19.7695V19.6465C117.258 19.3535 117.23 19.082 117.176 18.832C117.121 18.5781 117.035 18.3555 116.918 18.1641C116.801 17.9727 116.65 17.8242 116.467 17.7188C116.287 17.6094 116.07 17.5547 115.816 17.5547C115.566 17.5547 115.352 17.5977 115.172 17.6836C114.992 17.7656 114.842 17.8809 114.721 18.0293C114.6 18.1777 114.506 18.3516 114.439 18.5508C114.373 18.7461 114.326 18.959 114.299 19.1895V20.3262C114.346 20.6074 114.426 20.8652 114.539 21.0996C114.652 21.334 114.812 21.5215 115.02 21.6621C115.23 21.7988 115.5 21.8672 115.828 21.8672C116.082 21.8672 116.299 21.8125 116.479 21.7031C116.658 21.5938 116.805 21.4434 116.918 21.252C117.035 21.0566 117.121 20.832 117.176 20.5781C117.23 20.3242 117.258 20.0547 117.258 19.7695ZM121.383 13.875V22.875H119.965V13.875H121.383ZM125.725 22.9922C125.256 22.9922 124.832 22.916 124.453 22.7637C124.078 22.6074 123.758 22.3906 123.492 22.1133C123.23 21.8359 123.029 21.5098 122.889 21.1348C122.748 20.7598 122.678 20.3555 122.678 19.9219V19.6875C122.678 19.1914 122.75 18.7422 122.895 18.3398C123.039 17.9375 123.24 17.5938 123.498 17.3086C123.756 17.0195 124.061 16.7988 124.412 16.6465C124.764 16.4941 125.145 16.418 125.555 16.418C126.008 16.418 126.404 16.4941 126.744 16.6465C127.084 16.7988 127.365 17.0137 127.588 17.291C127.814 17.5645 127.982 17.8906 128.092 18.2695C128.205 18.6484 128.262 19.0664 128.262 19.5234V20.127H123.363V19.1133H126.867V19.002C126.859 18.748 126.809 18.5098 126.715 18.2871C126.625 18.0645 126.486 17.8848 126.299 17.748C126.111 17.6113 125.861 17.543 125.549 17.543C125.314 17.543 125.105 17.5938 124.922 17.6953C124.742 17.793 124.592 17.9355 124.471 18.123C124.35 18.3105 124.256 18.5371 124.189 18.8027C124.127 19.0645 124.096 19.3594 124.096 19.6875V19.9219C124.096 20.1992 124.133 20.457 124.207 20.6953C124.285 20.9297 124.398 21.1348 124.547 21.3105C124.695 21.4863 124.875 21.625 125.086 21.7266C125.297 21.8242 125.537 21.873 125.807 21.873C126.146 21.873 126.449 21.8047 126.715 21.668C126.98 21.5312 127.211 21.3379 127.406 21.0879L128.15 21.8086C128.014 22.0078 127.836 22.1992 127.617 22.3828C127.398 22.5625 127.131 22.709 126.814 22.8223C126.502 22.9355 126.139 22.9922 125.725 22.9922Z" fill="#F6F9FC"/>
<defs>
<clipPath id="clip0_95_6864">
<rect width="13.5" height="13.5" fill="white" transform="translate(12.375 11.625)"/>
</clipPath>
</defs>
</svg>
