<svg width="139" height="37" viewBox="0 0 139 37" fill="none" xmlns="http://www.w3.org/2000/svg">
<rect x="0.75" width="138.25" height="36.75" rx="6.75" fill="#050708"/>
<rect x="6.75" y="6" width="24.75" height="24.75" rx="2.25" fill="#F6F9FC"/>
<g clip-path="url(#clip0_97_6824)">
<path d="M24.0991 21.2691C23.9119 21.7015 23.6904 22.0994 23.4338 22.4653C23.0839 22.9641 22.7975 23.3094 22.5767 23.5011C22.2345 23.8159 21.8678 23.977 21.4752 23.9862C21.1933 23.9862 20.8534 23.906 20.4577 23.7433C20.0608 23.5813 19.6959 23.5011 19.3624 23.5011C19.0125 23.5011 18.6373 23.5813 18.236 23.7433C17.834 23.906 17.5102 23.9908 17.2627 23.9992C16.8861 24.0152 16.5109 23.8495 16.1363 23.5011C15.8972 23.2926 15.5981 22.9351 15.2399 22.4287C14.8555 21.8879 14.5395 21.2607 14.2919 20.5457C14.0268 19.7735 13.8939 19.0257 13.8939 18.3017C13.8939 17.4723 14.0731 16.757 14.432 16.1576C14.7141 15.6762 15.0894 15.2964 15.5591 15.0176C16.0288 14.7388 16.5363 14.5967 17.0828 14.5876C17.3819 14.5876 17.7741 14.6801 18.2614 14.8619C18.7474 15.0443 19.0594 15.1368 19.1962 15.1368C19.2985 15.1368 19.6451 15.0286 20.2328 14.813C20.7885 14.613 21.2575 14.5302 21.6417 14.5628C22.6829 14.6469 23.4651 15.0573 23.9853 15.7967C23.0541 16.3609 22.5935 17.1511 22.6027 18.1649C22.6111 18.9545 22.8975 19.6115 23.4605 20.1333C23.7156 20.3754 24.0005 20.5626 24.3176 20.6955C24.2488 20.8948 24.1762 21.0858 24.0991 21.2691ZM21.7112 11.8728C21.7112 12.4917 21.4851 13.0696 21.0345 13.6044C20.4906 14.2403 19.8328 14.6077 19.1194 14.5497C19.1103 14.4755 19.105 14.3973 19.105 14.3152C19.105 13.7211 19.3637 13.0852 19.823 12.5653C20.0523 12.3021 20.3439 12.0832 20.6976 11.9086C21.0505 11.7366 21.3843 11.6415 21.6983 11.6252C21.7074 11.708 21.7112 11.7907 21.7112 11.8728V11.8728Z" fill="#050708"/>
</g>
<path d="M41.6914 20.6777C41.6914 20.502 41.6641 20.3457 41.6094 20.209C41.5586 20.0723 41.4668 19.9473 41.334 19.834C41.2012 19.7207 41.0137 19.6113 40.7715 19.5059C40.5332 19.3965 40.2285 19.2852 39.8574 19.1719C39.4512 19.0469 39.0762 18.9082 38.7324 18.7559C38.3926 18.5996 38.0957 18.4199 37.8418 18.2168C37.5879 18.0098 37.3906 17.7734 37.25 17.5078C37.1094 17.2383 37.0391 16.9277 37.0391 16.5762C37.0391 16.2285 37.1113 15.9121 37.2559 15.627C37.4043 15.3418 37.6133 15.0957 37.8828 14.8887C38.1562 14.6777 38.4785 14.5156 38.8496 14.4023C39.2207 14.2852 39.6309 14.2266 40.0801 14.2266C40.7129 14.2266 41.2578 14.3438 41.7148 14.5781C42.1758 14.8125 42.5293 15.127 42.7754 15.5215C43.0254 15.916 43.1504 16.3516 43.1504 16.8281H41.6914C41.6914 16.5469 41.6309 16.2988 41.5098 16.084C41.3926 15.8652 41.2129 15.6934 40.9707 15.5684C40.7324 15.4434 40.4297 15.3809 40.0625 15.3809C39.7148 15.3809 39.4258 15.4336 39.1953 15.5391C38.9648 15.6445 38.793 15.7871 38.6797 15.9668C38.5664 16.1465 38.5098 16.3496 38.5098 16.5762C38.5098 16.7363 38.5469 16.8828 38.6211 17.0156C38.6953 17.1445 38.8086 17.2656 38.9609 17.3789C39.1133 17.4883 39.3047 17.5918 39.5352 17.6895C39.7656 17.7871 40.0371 17.8809 40.3496 17.9707C40.8223 18.1113 41.2344 18.2676 41.5859 18.4395C41.9375 18.6074 42.2305 18.7988 42.4648 19.0137C42.6992 19.2285 42.875 19.4727 42.9922 19.7461C43.1094 20.0156 43.168 20.3223 43.168 20.666C43.168 21.0254 43.0957 21.3496 42.9512 21.6387C42.8066 21.9238 42.5996 22.168 42.3301 22.3711C42.0645 22.5703 41.7441 22.7246 41.3691 22.834C40.998 22.9395 40.584 22.9922 40.127 22.9922C39.7168 22.9922 39.3125 22.9375 38.9141 22.8281C38.5195 22.7188 38.1602 22.5527 37.8359 22.3301C37.5117 22.1035 37.2539 21.8223 37.0625 21.4863C36.8711 21.1465 36.7754 20.75 36.7754 20.2969H38.2461C38.2461 20.5742 38.293 20.8105 38.3867 21.0059C38.4844 21.2012 38.6191 21.3613 38.791 21.4863C38.9629 21.6074 39.1621 21.6973 39.3887 21.7559C39.6191 21.8145 39.8652 21.8438 40.127 21.8438C40.4707 21.8438 40.7578 21.7949 40.9883 21.6973C41.2227 21.5996 41.3984 21.4629 41.5156 21.2871C41.6328 21.1113 41.6914 20.9082 41.6914 20.6777ZM45.8398 16.5352V22.875H44.4219V16.5352H45.8398ZM44.3281 14.8711C44.3281 14.6562 44.3984 14.4785 44.5391 14.3379C44.6836 14.1934 44.8828 14.1211 45.1367 14.1211C45.3867 14.1211 45.584 14.1934 45.7285 14.3379C45.873 14.4785 45.9453 14.6562 45.9453 14.8711C45.9453 15.082 45.873 15.2578 45.7285 15.3984C45.584 15.5391 45.3867 15.6094 45.1367 15.6094C44.8828 15.6094 44.6836 15.5391 44.5391 15.3984C44.3984 15.2578 44.3281 15.082 44.3281 14.8711ZM51.4473 16.5352H52.7305V22.6992C52.7305 23.2695 52.6094 23.7539 52.3672 24.1523C52.125 24.5508 51.7871 24.8535 51.3535 25.0605C50.9199 25.2715 50.418 25.377 49.8477 25.377C49.6055 25.377 49.3359 25.3418 49.0391 25.2715C48.7461 25.2012 48.4609 25.0879 48.1836 24.9316C47.9102 24.7793 47.6816 24.5781 47.498 24.3281L48.1602 23.4961C48.3867 23.7656 48.6367 23.9629 48.9102 24.0879C49.1836 24.2129 49.4707 24.2754 49.7715 24.2754C50.0957 24.2754 50.3711 24.2148 50.5977 24.0938C50.8281 23.9766 51.0059 23.8027 51.1309 23.5723C51.2559 23.3418 51.3184 23.0605 51.3184 22.7285V17.9707L51.4473 16.5352ZM47.1406 19.7754V19.6523C47.1406 19.1719 47.1992 18.7344 47.3164 18.3398C47.4336 17.9414 47.6016 17.5996 47.8203 17.3145C48.0391 17.0254 48.3047 16.8047 48.6172 16.6523C48.9297 16.4961 49.2832 16.418 49.6777 16.418C50.0879 16.418 50.4375 16.4922 50.7266 16.6406C51.0195 16.7891 51.2637 17.002 51.459 17.2793C51.6543 17.5527 51.8066 17.8809 51.916 18.2637C52.0293 18.6426 52.1133 19.0645 52.168 19.5293V19.9219C52.1172 20.375 52.0312 20.7891 51.9102 21.1641C51.7891 21.5391 51.6289 21.8633 51.4297 22.1367C51.2305 22.4102 50.9844 22.6211 50.6914 22.7695C50.4023 22.918 50.0605 22.9922 49.666 22.9922C49.2793 22.9922 48.9297 22.9121 48.6172 22.752C48.3086 22.5918 48.043 22.3672 47.8203 22.0781C47.6016 21.7891 47.4336 21.4492 47.3164 21.0586C47.1992 20.6641 47.1406 20.2363 47.1406 19.7754ZM48.5527 19.6523V19.7754C48.5527 20.0645 48.5801 20.334 48.6348 20.584C48.6934 20.834 48.7812 21.0547 48.8984 21.2461C49.0195 21.4336 49.1719 21.582 49.3555 21.6914C49.543 21.7969 49.7637 21.8496 50.0176 21.8496C50.3496 21.8496 50.6211 21.7793 50.832 21.6387C51.0469 21.498 51.2109 21.3086 51.3242 21.0703C51.4414 20.8281 51.5234 20.5586 51.5703 20.2617V19.2012C51.5469 18.9707 51.498 18.7559 51.4238 18.5566C51.3535 18.3574 51.2578 18.1836 51.1367 18.0352C51.0156 17.8828 50.8633 17.7656 50.6797 17.6836C50.4961 17.5977 50.2793 17.5547 50.0293 17.5547C49.7754 17.5547 49.5547 17.6094 49.3672 17.7188C49.1797 17.8281 49.0254 17.9785 48.9043 18.1699C48.7871 18.3613 48.6992 18.584 48.6406 18.8379C48.582 19.0918 48.5527 19.3633 48.5527 19.6523ZM55.5957 17.8887V22.875H54.1836V16.5352H55.5137L55.5957 17.8887ZM55.3438 19.4707L54.8867 19.4648C54.8906 19.0156 54.9531 18.6035 55.0742 18.2285C55.1992 17.8535 55.3711 17.5312 55.5898 17.2617C55.8125 16.9922 56.0781 16.7852 56.3867 16.6406C56.6953 16.4922 57.0391 16.418 57.418 16.418C57.7227 16.418 57.998 16.4609 58.2441 16.5469C58.4941 16.6289 58.707 16.7637 58.8828 16.9512C59.0625 17.1387 59.1992 17.3828 59.293 17.6836C59.3867 17.9805 59.4336 18.3457 59.4336 18.7793V22.875H58.0156V18.7734C58.0156 18.4688 57.9707 18.2285 57.8809 18.0527C57.7949 17.873 57.668 17.7461 57.5 17.6719C57.3359 17.5938 57.1309 17.5547 56.8848 17.5547C56.6426 17.5547 56.4258 17.6055 56.2344 17.707C56.043 17.8086 55.8809 17.9473 55.748 18.123C55.6191 18.2988 55.5195 18.502 55.4492 18.7324C55.3789 18.9629 55.3438 19.209 55.3438 19.4707ZM65.5742 14.3438V22.875H64.1035V14.3438H65.5742ZM68.6621 17.8887V22.875H67.25V16.5352H68.5801L68.6621 17.8887ZM68.4102 19.4707L67.9531 19.4648C67.957 19.0156 68.0195 18.6035 68.1406 18.2285C68.2656 17.8535 68.4375 17.5312 68.6562 17.2617C68.8789 16.9922 69.1445 16.7852 69.4531 16.6406C69.7617 16.4922 70.1055 16.418 70.4844 16.418C70.7891 16.418 71.0645 16.4609 71.3105 16.5469C71.5605 16.6289 71.7734 16.7637 71.9492 16.9512C72.1289 17.1387 72.2656 17.3828 72.3594 17.6836C72.4531 17.9805 72.5 18.3457 72.5 18.7793V22.875H71.082V18.7734C71.082 18.4688 71.0371 18.2285 70.9473 18.0527C70.8613 17.873 70.7344 17.7461 70.5664 17.6719C70.4023 17.5938 70.1973 17.5547 69.9512 17.5547C69.709 17.5547 69.4922 17.6055 69.3008 17.707C69.1094 17.8086 68.9473 17.9473 68.8145 18.123C68.6855 18.2988 68.5859 18.502 68.5156 18.7324C68.4453 18.9629 68.4102 19.209 68.4102 19.4707ZM78.6523 21.4688L80.1172 16.5352H81.0195L80.7734 18.0117L79.2969 22.875H78.4883L78.6523 21.4688ZM77.791 16.5352L78.9336 21.4922L79.0273 22.875H78.125L76.4082 16.5352H77.791ZM82.3906 21.4336L83.498 16.5352H84.875L83.1641 22.875H82.2617L82.3906 21.4336ZM81.1719 16.5352L82.6191 21.4102L82.8008 22.875H81.9922L80.498 18.0059L80.252 16.5352H81.1719ZM87.3477 16.5352V22.875H85.9297V16.5352H87.3477ZM85.8359 14.8711C85.8359 14.6562 85.9062 14.4785 86.0469 14.3379C86.1914 14.1934 86.3906 14.1211 86.6445 14.1211C86.8945 14.1211 87.0918 14.1934 87.2363 14.3379C87.3809 14.4785 87.4531 14.6562 87.4531 14.8711C87.4531 15.082 87.3809 15.2578 87.2363 15.3984C87.0918 15.5391 86.8945 15.6094 86.6445 15.6094C86.3906 15.6094 86.1914 15.5391 86.0469 15.3984C85.9062 15.2578 85.8359 15.082 85.8359 14.8711ZM91.8008 16.5352V17.5664H88.2266V16.5352H91.8008ZM89.2578 14.9824H90.6699V21.123C90.6699 21.3184 90.6973 21.4688 90.752 21.5742C90.8105 21.6758 90.8906 21.7441 90.9922 21.7793C91.0938 21.8145 91.2129 21.832 91.3496 21.832C91.4473 21.832 91.541 21.8262 91.6309 21.8145C91.7207 21.8027 91.793 21.791 91.8477 21.7793L91.8535 22.8574C91.7363 22.8926 91.5996 22.9238 91.4434 22.9512C91.291 22.9785 91.1152 22.9922 90.916 22.9922C90.5918 22.9922 90.3047 22.9355 90.0547 22.8223C89.8047 22.7051 89.6094 22.5156 89.4688 22.2539C89.3281 21.9922 89.2578 21.6445 89.2578 21.2109V14.9824ZM94.2852 13.875V22.875H92.8789V13.875H94.2852ZM94.0391 19.4707L93.582 19.4648C93.5859 19.0273 93.6465 18.623 93.7637 18.252C93.8848 17.8809 94.0527 17.5586 94.2676 17.2852C94.4863 17.0078 94.748 16.7949 95.0527 16.6465C95.3574 16.4941 95.6953 16.418 96.0664 16.418C96.3789 16.418 96.6602 16.4609 96.9102 16.5469C97.1641 16.6328 97.3828 16.7715 97.5664 16.9629C97.75 17.1504 97.8887 17.3965 97.9824 17.7012C98.0801 18.002 98.1289 18.3691 98.1289 18.8027V22.875H96.7109V18.791C96.7109 18.4863 96.666 18.2441 96.5762 18.0645C96.4902 17.8848 96.3633 17.7559 96.1953 17.6777C96.0273 17.5957 95.8223 17.5547 95.5801 17.5547C95.3262 17.5547 95.1016 17.6055 94.9062 17.707C94.7148 17.8086 94.5547 17.9473 94.4258 18.123C94.2969 18.2988 94.1992 18.502 94.1328 18.7324C94.0703 18.9629 94.0391 19.209 94.0391 19.4707ZM106.01 15.4805L103.461 22.875H101.92L105.131 14.3438H106.115L106.01 15.4805ZM108.143 22.875L105.588 15.4805L105.477 14.3438H106.467L109.689 22.875H108.143ZM108.02 19.7109V20.877H103.379V19.7109H108.02ZM111.816 17.7539V25.3125H110.404V16.5352H111.705L111.816 17.7539ZM115.947 19.6465V19.7695C115.947 20.2305 115.893 20.6582 115.783 21.0527C115.678 21.4434 115.52 21.7852 115.309 22.0781C115.102 22.3672 114.846 22.5918 114.541 22.752C114.236 22.9121 113.885 22.9922 113.486 22.9922C113.092 22.9922 112.746 22.9199 112.449 22.7754C112.156 22.627 111.908 22.418 111.705 22.1484C111.502 21.8789 111.338 21.5625 111.213 21.1992C111.092 20.832 111.006 20.4297 110.955 19.9922V19.5176C111.006 19.0527 111.092 18.6309 111.213 18.252C111.338 17.873 111.502 17.5469 111.705 17.2734C111.908 17 112.156 16.7891 112.449 16.6406C112.742 16.4922 113.084 16.418 113.475 16.418C113.873 16.418 114.227 16.4961 114.535 16.6523C114.844 16.8047 115.104 17.0234 115.314 17.3086C115.525 17.5898 115.684 17.9297 115.789 18.3281C115.895 18.7227 115.947 19.1621 115.947 19.6465ZM114.535 19.7695V19.6465C114.535 19.3535 114.508 19.082 114.453 18.832C114.398 18.5781 114.312 18.3555 114.195 18.1641C114.078 17.9727 113.928 17.8242 113.744 17.7188C113.564 17.6094 113.348 17.5547 113.094 17.5547C112.844 17.5547 112.629 17.5977 112.449 17.6836C112.27 17.7656 112.119 17.8809 111.998 18.0293C111.877 18.1777 111.783 18.3516 111.717 18.5508C111.65 18.7461 111.604 18.959 111.576 19.1895V20.3262C111.623 20.6074 111.703 20.8652 111.816 21.0996C111.93 21.334 112.09 21.5215 112.297 21.6621C112.508 21.7988 112.777 21.8672 113.105 21.8672C113.359 21.8672 113.576 21.8125 113.756 21.7031C113.936 21.5938 114.082 21.4434 114.195 21.252C114.312 21.0566 114.398 20.832 114.453 20.5781C114.508 20.3242 114.535 20.0547 114.535 19.7695ZM118.566 17.7539V25.3125H117.154V16.5352H118.455L118.566 17.7539ZM122.697 19.6465V19.7695C122.697 20.2305 122.643 20.6582 122.533 21.0527C122.428 21.4434 122.27 21.7852 122.059 22.0781C121.852 22.3672 121.596 22.5918 121.291 22.752C120.986 22.9121 120.635 22.9922 120.236 22.9922C119.842 22.9922 119.496 22.9199 119.199 22.7754C118.906 22.627 118.658 22.418 118.455 22.1484C118.252 21.8789 118.088 21.5625 117.963 21.1992C117.842 20.832 117.756 20.4297 117.705 19.9922V19.5176C117.756 19.0527 117.842 18.6309 117.963 18.252C118.088 17.873 118.252 17.5469 118.455 17.2734C118.658 17 118.906 16.7891 119.199 16.6406C119.492 16.4922 119.834 16.418 120.225 16.418C120.623 16.418 120.977 16.4961 121.285 16.6523C121.594 16.8047 121.854 17.0234 122.064 17.3086C122.275 17.5898 122.434 17.9297 122.539 18.3281C122.645 18.7227 122.697 19.1621 122.697 19.6465ZM121.285 19.7695V19.6465C121.285 19.3535 121.258 19.082 121.203 18.832C121.148 18.5781 121.062 18.3555 120.945 18.1641C120.828 17.9727 120.678 17.8242 120.494 17.7188C120.314 17.6094 120.098 17.5547 119.844 17.5547C119.594 17.5547 119.379 17.5977 119.199 17.6836C119.02 17.7656 118.869 17.8809 118.748 18.0293C118.627 18.1777 118.533 18.3516 118.467 18.5508C118.4 18.7461 118.354 18.959 118.326 19.1895V20.3262C118.373 20.6074 118.453 20.8652 118.566 21.0996C118.68 21.334 118.84 21.5215 119.047 21.6621C119.258 21.7988 119.527 21.8672 119.855 21.8672C120.109 21.8672 120.326 21.8125 120.506 21.7031C120.686 21.5938 120.832 21.4434 120.945 21.252C121.062 21.0566 121.148 20.832 121.203 20.5781C121.258 20.3242 121.285 20.0547 121.285 19.7695ZM125.41 13.875V22.875H123.992V13.875H125.41ZM129.752 22.9922C129.283 22.9922 128.859 22.916 128.48 22.7637C128.105 22.6074 127.785 22.3906 127.52 22.1133C127.258 21.8359 127.057 21.5098 126.916 21.1348C126.775 20.7598 126.705 20.3555 126.705 19.9219V19.6875C126.705 19.1914 126.777 18.7422 126.922 18.3398C127.066 17.9375 127.268 17.5938 127.525 17.3086C127.783 17.0195 128.088 16.7988 128.439 16.6465C128.791 16.4941 129.172 16.418 129.582 16.418C130.035 16.418 130.432 16.4941 130.771 16.6465C131.111 16.7988 131.393 17.0137 131.615 17.291C131.842 17.5645 132.01 17.8906 132.119 18.2695C132.232 18.6484 132.289 19.0664 132.289 19.5234V20.127H127.391V19.1133H130.895V19.002C130.887 18.748 130.836 18.5098 130.742 18.2871C130.652 18.0645 130.514 17.8848 130.326 17.748C130.139 17.6113 129.889 17.543 129.576 17.543C129.342 17.543 129.133 17.5938 128.949 17.6953C128.77 17.793 128.619 17.9355 128.498 18.123C128.377 18.3105 128.283 18.5371 128.217 18.8027C128.154 19.0645 128.123 19.3594 128.123 19.6875V19.9219C128.123 20.1992 128.16 20.457 128.234 20.6953C128.312 20.9297 128.426 21.1348 128.574 21.3105C128.723 21.4863 128.902 21.625 129.113 21.7266C129.324 21.8242 129.564 21.873 129.834 21.873C130.174 21.873 130.477 21.8047 130.742 21.668C131.008 21.5312 131.238 21.3379 131.434 21.0879L132.178 21.8086C132.041 22.0078 131.863 22.1992 131.645 22.3828C131.426 22.5625 131.158 22.709 130.842 22.8223C130.529 22.9355 130.166 22.9922 129.752 22.9922Z" fill="#F6F9FC"/>
<defs>
<clipPath id="clip0_97_6824">
<rect width="13.5" height="13.5" fill="white" transform="translate(12.375 11.625)"/>
</clipPath>
</defs>
</svg>
