<svg width="146" height="37" viewBox="0 0 146 37" fill="none" xmlns="http://www.w3.org/2000/svg">
<rect width="145.5" height="36.75" rx="6.75" fill="#4285F4"/>
<rect x="6" y="6" width="24.75" height="24.75" rx="2.25" fill="#F6F9FC"/>
<g clip-path="url(#clip0_97_15889)">
<path d="M24.9935 18.5303C24.9935 18.0714 24.9563 17.6101 24.8769 17.1587H18.5101V19.758H22.1561C22.0048 20.5963 21.5187 21.3379 20.8068 21.8092V23.4957H22.982C24.2594 22.3201 24.9935 20.5839 24.9935 18.5303Z" fill="#4285F4"/>
<path d="M18.5101 25.1255C20.3306 25.1255 21.8658 24.5278 22.9844 23.496L20.8092 21.8094C20.2041 22.2211 19.4228 22.4543 18.5125 22.4543C16.7516 22.4543 15.2584 21.2662 14.7227 19.6689H12.4781V21.4076C13.624 23.6869 15.9579 25.1255 18.5101 25.1255V25.1255Z" fill="#34A853"/>
<path d="M14.7203 19.6688C14.4376 18.8305 14.4376 17.9227 14.7203 17.0844V15.3457H12.4782C11.5208 17.253 11.5208 19.5001 12.4782 21.4074L14.7203 19.6688V19.6688Z" fill="#FBBC04"/>
<path d="M18.5101 14.2967C19.4724 14.2818 20.4025 14.6439 21.0994 15.3086L23.0266 13.3815C21.8063 12.2356 20.1867 11.6056 18.5101 11.6255C15.9579 11.6255 13.624 13.064 12.4781 15.3458L14.7202 17.0845C15.2535 15.4847 16.7491 14.2967 18.5101 14.2967V14.2967Z" fill="#EA4335"/>
</g>
<path d="M40.8145 20.6777C40.8145 20.502 40.7871 20.3457 40.7324 20.209C40.6816 20.0723 40.5898 19.9473 40.457 19.834C40.3242 19.7207 40.1367 19.6113 39.8945 19.5059C39.6562 19.3965 39.3516 19.2852 38.9805 19.1719C38.5742 19.0469 38.1992 18.9082 37.8555 18.7559C37.5156 18.5996 37.2188 18.4199 36.9648 18.2168C36.7109 18.0098 36.5137 17.7734 36.373 17.5078C36.2324 17.2383 36.1621 16.9277 36.1621 16.5762C36.1621 16.2285 36.2344 15.9121 36.3789 15.627C36.5273 15.3418 36.7363 15.0957 37.0059 14.8887C37.2793 14.6777 37.6016 14.5156 37.9727 14.4023C38.3438 14.2852 38.7539 14.2266 39.2031 14.2266C39.8359 14.2266 40.3809 14.3438 40.8379 14.5781C41.2988 14.8125 41.6523 15.127 41.8984 15.5215C42.1484 15.916 42.2734 16.3516 42.2734 16.8281H40.8145C40.8145 16.5469 40.7539 16.2988 40.6328 16.084C40.5156 15.8652 40.3359 15.6934 40.0938 15.5684C39.8555 15.4434 39.5527 15.3809 39.1855 15.3809C38.8379 15.3809 38.5488 15.4336 38.3184 15.5391C38.0879 15.6445 37.916 15.7871 37.8027 15.9668C37.6895 16.1465 37.6328 16.3496 37.6328 16.5762C37.6328 16.7363 37.6699 16.8828 37.7441 17.0156C37.8184 17.1445 37.9316 17.2656 38.084 17.3789C38.2363 17.4883 38.4277 17.5918 38.6582 17.6895C38.8887 17.7871 39.1602 17.8809 39.4727 17.9707C39.9453 18.1113 40.3574 18.2676 40.709 18.4395C41.0605 18.6074 41.3535 18.7988 41.5879 19.0137C41.8223 19.2285 41.998 19.4727 42.1152 19.7461C42.2324 20.0156 42.291 20.3223 42.291 20.666C42.291 21.0254 42.2188 21.3496 42.0742 21.6387C41.9297 21.9238 41.7227 22.168 41.4531 22.3711C41.1875 22.5703 40.8672 22.7246 40.4922 22.834C40.1211 22.9395 39.707 22.9922 39.25 22.9922C38.8398 22.9922 38.4355 22.9375 38.0371 22.8281C37.6426 22.7188 37.2832 22.5527 36.959 22.3301C36.6348 22.1035 36.377 21.8223 36.1855 21.4863C35.9941 21.1465 35.8984 20.75 35.8984 20.2969H37.3691C37.3691 20.5742 37.416 20.8105 37.5098 21.0059C37.6074 21.2012 37.7422 21.3613 37.9141 21.4863C38.0859 21.6074 38.2852 21.6973 38.5117 21.7559C38.7422 21.8145 38.9883 21.8438 39.25 21.8438C39.5938 21.8438 39.8809 21.7949 40.1113 21.6973C40.3457 21.5996 40.5215 21.4629 40.6387 21.2871C40.7559 21.1113 40.8145 20.9082 40.8145 20.6777ZM44.9629 16.5352V22.875H43.5449V16.5352H44.9629ZM43.4512 14.8711C43.4512 14.6562 43.5215 14.4785 43.6621 14.3379C43.8066 14.1934 44.0059 14.1211 44.2598 14.1211C44.5098 14.1211 44.707 14.1934 44.8516 14.3379C44.9961 14.4785 45.0684 14.6562 45.0684 14.8711C45.0684 15.082 44.9961 15.2578 44.8516 15.3984C44.707 15.5391 44.5098 15.6094 44.2598 15.6094C44.0059 15.6094 43.8066 15.5391 43.6621 15.3984C43.5215 15.2578 43.4512 15.082 43.4512 14.8711ZM50.5703 16.5352H51.8535V22.6992C51.8535 23.2695 51.7324 23.7539 51.4902 24.1523C51.248 24.5508 50.9102 24.8535 50.4766 25.0605C50.043 25.2715 49.541 25.377 48.9707 25.377C48.7285 25.377 48.459 25.3418 48.1621 25.2715C47.8691 25.2012 47.584 25.0879 47.3066 24.9316C47.0332 24.7793 46.8047 24.5781 46.6211 24.3281L47.2832 23.4961C47.5098 23.7656 47.7598 23.9629 48.0332 24.0879C48.3066 24.2129 48.5938 24.2754 48.8945 24.2754C49.2188 24.2754 49.4941 24.2148 49.7207 24.0938C49.9512 23.9766 50.1289 23.8027 50.2539 23.5723C50.3789 23.3418 50.4414 23.0605 50.4414 22.7285V17.9707L50.5703 16.5352ZM46.2637 19.7754V19.6523C46.2637 19.1719 46.3223 18.7344 46.4395 18.3398C46.5566 17.9414 46.7246 17.5996 46.9434 17.3145C47.1621 17.0254 47.4277 16.8047 47.7402 16.6523C48.0527 16.4961 48.4062 16.418 48.8008 16.418C49.2109 16.418 49.5605 16.4922 49.8496 16.6406C50.1426 16.7891 50.3867 17.002 50.582 17.2793C50.7773 17.5527 50.9297 17.8809 51.0391 18.2637C51.1523 18.6426 51.2363 19.0645 51.291 19.5293V19.9219C51.2402 20.375 51.1543 20.7891 51.0332 21.1641C50.9121 21.5391 50.752 21.8633 50.5527 22.1367C50.3535 22.4102 50.1074 22.6211 49.8145 22.7695C49.5254 22.918 49.1836 22.9922 48.7891 22.9922C48.4023 22.9922 48.0527 22.9121 47.7402 22.752C47.4316 22.5918 47.166 22.3672 46.9434 22.0781C46.7246 21.7891 46.5566 21.4492 46.4395 21.0586C46.3223 20.6641 46.2637 20.2363 46.2637 19.7754ZM47.6758 19.6523V19.7754C47.6758 20.0645 47.7031 20.334 47.7578 20.584C47.8164 20.834 47.9043 21.0547 48.0215 21.2461C48.1426 21.4336 48.2949 21.582 48.4785 21.6914C48.666 21.7969 48.8867 21.8496 49.1406 21.8496C49.4727 21.8496 49.7441 21.7793 49.9551 21.6387C50.1699 21.498 50.334 21.3086 50.4473 21.0703C50.5645 20.8281 50.6465 20.5586 50.6934 20.2617V19.2012C50.6699 18.9707 50.6211 18.7559 50.5469 18.5566C50.4766 18.3574 50.3809 18.1836 50.2598 18.0352C50.1387 17.8828 49.9863 17.7656 49.8027 17.6836C49.6191 17.5977 49.4023 17.5547 49.1523 17.5547C48.8984 17.5547 48.6777 17.6094 48.4902 17.7188C48.3027 17.8281 48.1484 17.9785 48.0273 18.1699C47.9102 18.3613 47.8223 18.584 47.7637 18.8379C47.7051 19.0918 47.6758 19.3633 47.6758 19.6523ZM54.7188 17.8887V22.875H53.3066V16.5352H54.6367L54.7188 17.8887ZM54.4668 19.4707L54.0098 19.4648C54.0137 19.0156 54.0762 18.6035 54.1973 18.2285C54.3223 17.8535 54.4941 17.5312 54.7129 17.2617C54.9355 16.9922 55.2012 16.7852 55.5098 16.6406C55.8184 16.4922 56.1621 16.418 56.541 16.418C56.8457 16.418 57.1211 16.4609 57.3672 16.5469C57.6172 16.6289 57.8301 16.7637 58.0059 16.9512C58.1855 17.1387 58.3223 17.3828 58.416 17.6836C58.5098 17.9805 58.5566 18.3457 58.5566 18.7793V22.875H57.1387V18.7734C57.1387 18.4688 57.0938 18.2285 57.0039 18.0527C56.918 17.873 56.791 17.7461 56.623 17.6719C56.459 17.5938 56.2539 17.5547 56.0078 17.5547C55.7656 17.5547 55.5488 17.6055 55.3574 17.707C55.166 17.8086 55.0039 17.9473 54.8711 18.123C54.7422 18.2988 54.6426 18.502 54.5723 18.7324C54.502 18.9629 54.4668 19.209 54.4668 19.4707ZM64.6973 14.3438V22.875H63.2266V14.3438H64.6973ZM67.7852 17.8887V22.875H66.373V16.5352H67.7031L67.7852 17.8887ZM67.5332 19.4707L67.0762 19.4648C67.0801 19.0156 67.1426 18.6035 67.2637 18.2285C67.3887 17.8535 67.5605 17.5312 67.7793 17.2617C68.002 16.9922 68.2676 16.7852 68.5762 16.6406C68.8848 16.4922 69.2285 16.418 69.6074 16.418C69.9121 16.418 70.1875 16.4609 70.4336 16.5469C70.6836 16.6289 70.8965 16.7637 71.0723 16.9512C71.252 17.1387 71.3887 17.3828 71.4824 17.6836C71.5762 17.9805 71.623 18.3457 71.623 18.7793V22.875H70.2051V18.7734C70.2051 18.4688 70.1602 18.2285 70.0703 18.0527C69.9844 17.873 69.8574 17.7461 69.6895 17.6719C69.5254 17.5938 69.3203 17.5547 69.0742 17.5547C68.832 17.5547 68.6152 17.6055 68.4238 17.707C68.2324 17.8086 68.0703 17.9473 67.9375 18.123C67.8086 18.2988 67.709 18.502 67.6387 18.7324C67.5684 18.9629 67.5332 19.209 67.5332 19.4707ZM77.7754 21.4688L79.2402 16.5352H80.1426L79.8965 18.0117L78.4199 22.875H77.6113L77.7754 21.4688ZM76.9141 16.5352L78.0566 21.4922L78.1504 22.875H77.248L75.5312 16.5352H76.9141ZM81.5137 21.4336L82.6211 16.5352H83.998L82.2871 22.875H81.3848L81.5137 21.4336ZM80.2949 16.5352L81.7422 21.4102L81.9238 22.875H81.1152L79.6211 18.0059L79.375 16.5352H80.2949ZM86.4707 16.5352V22.875H85.0527V16.5352H86.4707ZM84.959 14.8711C84.959 14.6562 85.0293 14.4785 85.1699 14.3379C85.3145 14.1934 85.5137 14.1211 85.7676 14.1211C86.0176 14.1211 86.2148 14.1934 86.3594 14.3379C86.5039 14.4785 86.5762 14.6562 86.5762 14.8711C86.5762 15.082 86.5039 15.2578 86.3594 15.3984C86.2148 15.5391 86.0176 15.6094 85.7676 15.6094C85.5137 15.6094 85.3145 15.5391 85.1699 15.3984C85.0293 15.2578 84.959 15.082 84.959 14.8711ZM90.9238 16.5352V17.5664H87.3496V16.5352H90.9238ZM88.3809 14.9824H89.793V21.123C89.793 21.3184 89.8203 21.4688 89.875 21.5742C89.9336 21.6758 90.0137 21.7441 90.1152 21.7793C90.2168 21.8145 90.3359 21.832 90.4727 21.832C90.5703 21.832 90.6641 21.8262 90.7539 21.8145C90.8438 21.8027 90.916 21.791 90.9707 21.7793L90.9766 22.8574C90.8594 22.8926 90.7227 22.9238 90.5664 22.9512C90.4141 22.9785 90.2383 22.9922 90.0391 22.9922C89.7148 22.9922 89.4277 22.9355 89.1777 22.8223C88.9277 22.7051 88.7324 22.5156 88.5918 22.2539C88.4512 21.9922 88.3809 21.6445 88.3809 21.2109V14.9824ZM93.4082 13.875V22.875H92.002V13.875H93.4082ZM93.1621 19.4707L92.7051 19.4648C92.709 19.0273 92.7695 18.623 92.8867 18.252C93.0078 17.8809 93.1758 17.5586 93.3906 17.2852C93.6094 17.0078 93.8711 16.7949 94.1758 16.6465C94.4805 16.4941 94.8184 16.418 95.1895 16.418C95.502 16.418 95.7832 16.4609 96.0332 16.5469C96.2871 16.6328 96.5059 16.7715 96.6895 16.9629C96.873 17.1504 97.0117 17.3965 97.1055 17.7012C97.2031 18.002 97.252 18.3691 97.252 18.8027V22.875H95.834V18.791C95.834 18.4863 95.7891 18.2441 95.6992 18.0645C95.6133 17.8848 95.4863 17.7559 95.3184 17.6777C95.1504 17.5957 94.9453 17.5547 94.7031 17.5547C94.4492 17.5547 94.2246 17.6055 94.0293 17.707C93.8379 17.8086 93.6777 17.9473 93.5488 18.123C93.4199 18.2988 93.3223 18.502 93.2559 18.7324C93.1934 18.9629 93.1621 19.209 93.1621 19.4707ZM108.361 18.5156V21.7734C108.24 21.9336 108.051 22.1094 107.793 22.3008C107.539 22.4883 107.201 22.6504 106.779 22.7871C106.357 22.9238 105.832 22.9922 105.203 22.9922C104.668 22.9922 104.178 22.9023 103.732 22.7227C103.287 22.5391 102.902 22.2715 102.578 21.9199C102.258 21.5684 102.01 21.1406 101.834 20.6367C101.658 20.1289 101.57 19.5508 101.57 18.9023V18.3105C101.57 17.666 101.65 17.0918 101.811 16.5879C101.975 16.0801 102.209 15.6504 102.514 15.2988C102.818 14.9473 103.186 14.6816 103.615 14.502C104.049 14.3184 104.539 14.2266 105.086 14.2266C105.785 14.2266 106.363 14.3438 106.82 14.5781C107.281 14.8086 107.637 15.1289 107.887 15.5391C108.137 15.9492 108.295 16.418 108.361 16.9453H106.92C106.873 16.6484 106.781 16.3828 106.645 16.1484C106.512 15.9141 106.32 15.7305 106.07 15.5977C105.824 15.4609 105.504 15.3926 105.109 15.3926C104.77 15.3926 104.471 15.457 104.213 15.5859C103.955 15.7148 103.74 15.9043 103.568 16.1543C103.4 16.4043 103.273 16.709 103.188 17.0684C103.102 17.4277 103.059 17.8379 103.059 18.2988V18.9023C103.059 19.3711 103.107 19.7871 103.205 20.1504C103.307 20.5137 103.451 20.8203 103.639 21.0703C103.83 21.3203 104.062 21.5098 104.336 21.6387C104.609 21.7637 104.918 21.8262 105.262 21.8262C105.598 21.8262 105.873 21.7988 106.088 21.7441C106.303 21.6855 106.473 21.6172 106.598 21.5391C106.727 21.457 106.826 21.3789 106.896 21.3047V19.6113H105.121V18.5156H108.361ZM109.58 19.7754V19.6406C109.58 19.1836 109.646 18.7598 109.779 18.3691C109.912 17.9746 110.104 17.6328 110.354 17.3438C110.607 17.0508 110.916 16.8242 111.279 16.6641C111.646 16.5 112.061 16.418 112.521 16.418C112.986 16.418 113.4 16.5 113.764 16.6641C114.131 16.8242 114.441 17.0508 114.695 17.3438C114.949 17.6328 115.143 17.9746 115.275 18.3691C115.408 18.7598 115.475 19.1836 115.475 19.6406V19.7754C115.475 20.2324 115.408 20.6562 115.275 21.0469C115.143 21.4375 114.949 21.7793 114.695 22.0723C114.441 22.3613 114.133 22.5879 113.77 22.752C113.406 22.9121 112.994 22.9922 112.533 22.9922C112.068 22.9922 111.652 22.9121 111.285 22.752C110.922 22.5879 110.613 22.3613 110.359 22.0723C110.105 21.7793 109.912 21.4375 109.779 21.0469C109.646 20.6562 109.58 20.2324 109.58 19.7754ZM110.992 19.6406V19.7754C110.992 20.0605 111.021 20.3301 111.08 20.584C111.139 20.8379 111.23 21.0605 111.355 21.252C111.48 21.4434 111.641 21.5938 111.836 21.7031C112.031 21.8125 112.264 21.8672 112.533 21.8672C112.795 21.8672 113.021 21.8125 113.213 21.7031C113.408 21.5938 113.568 21.4434 113.693 21.252C113.818 21.0605 113.91 20.8379 113.969 20.584C114.031 20.3301 114.062 20.0605 114.062 19.7754V19.6406C114.062 19.3594 114.031 19.0938 113.969 18.8438C113.91 18.5898 113.816 18.3652 113.688 18.1699C113.562 17.9746 113.402 17.8223 113.207 17.7129C113.016 17.5996 112.787 17.543 112.521 17.543C112.256 17.543 112.025 17.5996 111.83 17.7129C111.639 17.8223 111.48 17.9746 111.355 18.1699C111.23 18.3652 111.139 18.5898 111.08 18.8438C111.021 19.0938 110.992 19.3594 110.992 19.6406ZM116.389 19.7754V19.6406C116.389 19.1836 116.455 18.7598 116.588 18.3691C116.721 17.9746 116.912 17.6328 117.162 17.3438C117.416 17.0508 117.725 16.8242 118.088 16.6641C118.455 16.5 118.869 16.418 119.33 16.418C119.795 16.418 120.209 16.5 120.572 16.6641C120.939 16.8242 121.25 17.0508 121.504 17.3438C121.758 17.6328 121.951 17.9746 122.084 18.3691C122.217 18.7598 122.283 19.1836 122.283 19.6406V19.7754C122.283 20.2324 122.217 20.6562 122.084 21.0469C121.951 21.4375 121.758 21.7793 121.504 22.0723C121.25 22.3613 120.941 22.5879 120.578 22.752C120.215 22.9121 119.803 22.9922 119.342 22.9922C118.877 22.9922 118.461 22.9121 118.094 22.752C117.73 22.5879 117.422 22.3613 117.168 22.0723C116.914 21.7793 116.721 21.4375 116.588 21.0469C116.455 20.6562 116.389 20.2324 116.389 19.7754ZM117.801 19.6406V19.7754C117.801 20.0605 117.83 20.3301 117.889 20.584C117.947 20.8379 118.039 21.0605 118.164 21.252C118.289 21.4434 118.449 21.5938 118.645 21.7031C118.84 21.8125 119.072 21.8672 119.342 21.8672C119.604 21.8672 119.83 21.8125 120.021 21.7031C120.217 21.5938 120.377 21.4434 120.502 21.252C120.627 21.0605 120.719 20.8379 120.777 20.584C120.84 20.3301 120.871 20.0605 120.871 19.7754V19.6406C120.871 19.3594 120.84 19.0938 120.777 18.8438C120.719 18.5898 120.625 18.3652 120.496 18.1699C120.371 17.9746 120.211 17.8223 120.016 17.7129C119.824 17.5996 119.596 17.543 119.33 17.543C119.064 17.543 118.834 17.5996 118.639 17.7129C118.447 17.8223 118.289 17.9746 118.164 18.1699C118.039 18.3652 117.947 18.5898 117.889 18.8438C117.83 19.0938 117.801 19.3594 117.801 19.6406ZM127.527 16.5352H128.811V22.6992C128.811 23.2695 128.689 23.7539 128.447 24.1523C128.205 24.5508 127.867 24.8535 127.434 25.0605C127 25.2715 126.498 25.377 125.928 25.377C125.686 25.377 125.416 25.3418 125.119 25.2715C124.826 25.2012 124.541 25.0879 124.264 24.9316C123.99 24.7793 123.762 24.5781 123.578 24.3281L124.24 23.4961C124.467 23.7656 124.717 23.9629 124.99 24.0879C125.264 24.2129 125.551 24.2754 125.852 24.2754C126.176 24.2754 126.451 24.2148 126.678 24.0938C126.908 23.9766 127.086 23.8027 127.211 23.5723C127.336 23.3418 127.398 23.0605 127.398 22.7285V17.9707L127.527 16.5352ZM123.221 19.7754V19.6523C123.221 19.1719 123.279 18.7344 123.396 18.3398C123.514 17.9414 123.682 17.5996 123.9 17.3145C124.119 17.0254 124.385 16.8047 124.697 16.6523C125.01 16.4961 125.363 16.418 125.758 16.418C126.168 16.418 126.518 16.4922 126.807 16.6406C127.1 16.7891 127.344 17.002 127.539 17.2793C127.734 17.5527 127.887 17.8809 127.996 18.2637C128.109 18.6426 128.193 19.0645 128.248 19.5293V19.9219C128.197 20.375 128.111 20.7891 127.99 21.1641C127.869 21.5391 127.709 21.8633 127.51 22.1367C127.311 22.4102 127.064 22.6211 126.771 22.7695C126.482 22.918 126.141 22.9922 125.746 22.9922C125.359 22.9922 125.01 22.9121 124.697 22.752C124.389 22.5918 124.123 22.3672 123.9 22.0781C123.682 21.7891 123.514 21.4492 123.396 21.0586C123.279 20.6641 123.221 20.2363 123.221 19.7754ZM124.633 19.6523V19.7754C124.633 20.0645 124.66 20.334 124.715 20.584C124.773 20.834 124.861 21.0547 124.979 21.2461C125.1 21.4336 125.252 21.582 125.436 21.6914C125.623 21.7969 125.844 21.8496 126.098 21.8496C126.43 21.8496 126.701 21.7793 126.912 21.6387C127.127 21.498 127.291 21.3086 127.404 21.0703C127.521 20.8281 127.604 20.5586 127.65 20.2617V19.2012C127.627 18.9707 127.578 18.7559 127.504 18.5566C127.434 18.3574 127.338 18.1836 127.217 18.0352C127.096 17.8828 126.943 17.7656 126.76 17.6836C126.576 17.5977 126.359 17.5547 126.109 17.5547C125.855 17.5547 125.635 17.6094 125.447 17.7188C125.26 17.8281 125.105 17.9785 124.984 18.1699C124.867 18.3613 124.779 18.584 124.721 18.8379C124.662 19.0918 124.633 19.3633 124.633 19.6523ZM131.787 13.875V22.875H130.369V13.875H131.787ZM136.129 22.9922C135.66 22.9922 135.236 22.916 134.857 22.7637C134.482 22.6074 134.162 22.3906 133.896 22.1133C133.635 21.8359 133.434 21.5098 133.293 21.1348C133.152 20.7598 133.082 20.3555 133.082 19.9219V19.6875C133.082 19.1914 133.154 18.7422 133.299 18.3398C133.443 17.9375 133.645 17.5938 133.902 17.3086C134.16 17.0195 134.465 16.7988 134.816 16.6465C135.168 16.4941 135.549 16.418 135.959 16.418C136.412 16.418 136.809 16.4941 137.148 16.6465C137.488 16.7988 137.77 17.0137 137.992 17.291C138.219 17.5645 138.387 17.8906 138.496 18.2695C138.609 18.6484 138.666 19.0664 138.666 19.5234V20.127H133.768V19.1133H137.271V19.002C137.264 18.748 137.213 18.5098 137.119 18.2871C137.029 18.0645 136.891 17.8848 136.703 17.748C136.516 17.6113 136.266 17.543 135.953 17.543C135.719 17.543 135.51 17.5938 135.326 17.6953C135.146 17.793 134.996 17.9355 134.875 18.123C134.754 18.3105 134.66 18.5371 134.594 18.8027C134.531 19.0645 134.5 19.3594 134.5 19.6875V19.9219C134.5 20.1992 134.537 20.457 134.611 20.6953C134.689 20.9297 134.803 21.1348 134.951 21.3105C135.1 21.4863 135.279 21.625 135.49 21.7266C135.701 21.8242 135.941 21.873 136.211 21.873C136.551 21.873 136.854 21.8047 137.119 21.668C137.385 21.5312 137.615 21.3379 137.811 21.0879L138.555 21.8086C138.418 22.0078 138.24 22.1992 138.021 22.3828C137.803 22.5625 137.535 22.709 137.219 22.8223C136.906 22.9355 136.543 22.9922 136.129 22.9922Z" fill="#F6F9FC"/>
<defs>
<clipPath id="clip0_97_15889">
<rect width="13.5" height="13.5" fill="white" transform="translate(11.625 11.625)"/>
</clipPath>
</defs>
</svg>
