<svg width="160" height="37" viewBox="0 0 160 37" fill="none" xmlns="http://www.w3.org/2000/svg">
<rect x="0.5" width="159.25" height="36.75" rx="6.75" fill="#3B5999"/>
<rect x="6.5" y="6" width="24.75" height="24.75" rx="2.25" fill="#F6F9FC"/>
<g clip-path="url(#clip0_97_6818)">
<path d="M25.625 18.375C25.625 14.6471 22.6029 11.625 18.875 11.625C15.1471 11.625 12.125 14.6471 12.125 18.375C12.125 21.7441 14.5934 24.5366 17.8203 25.043V20.3262H16.1064V18.375H17.8203V16.8879C17.8203 15.1962 18.8281 14.2617 20.3699 14.2617C21.1082 14.2617 21.8809 14.3936 21.8809 14.3936V16.0547H21.0297C20.1913 16.0547 19.9297 16.575 19.9297 17.1094V18.375H21.8018L21.5025 20.3262H19.9297V25.043C23.1566 24.5366 25.625 21.7441 25.625 18.375Z" fill="#3B5999"/>
<path d="M21.5025 20.3262L21.8018 18.375H19.9297V17.1094C19.9297 16.5756 20.1913 16.0547 21.0297 16.0547H21.8809V14.3936C21.8809 14.3936 21.1084 14.2617 20.3699 14.2617C18.8281 14.2617 17.8203 15.1962 17.8203 16.8879V18.375H16.1064V20.3262H17.8203V25.043C18.5192 25.1523 19.2308 25.1523 19.9297 25.043V20.3262H21.5025Z" fill="white"/>
</g>
<path d="M41.2598 20.6777C41.2598 20.502 41.2324 20.3457 41.1777 20.209C41.127 20.0723 41.0352 19.9473 40.9023 19.834C40.7695 19.7207 40.582 19.6113 40.3398 19.5059C40.1016 19.3965 39.7969 19.2852 39.4258 19.1719C39.0195 19.0469 38.6445 18.9082 38.3008 18.7559C37.9609 18.5996 37.6641 18.4199 37.4102 18.2168C37.1562 18.0098 36.959 17.7734 36.8184 17.5078C36.6777 17.2383 36.6074 16.9277 36.6074 16.5762C36.6074 16.2285 36.6797 15.9121 36.8242 15.627C36.9727 15.3418 37.1816 15.0957 37.4512 14.8887C37.7246 14.6777 38.0469 14.5156 38.418 14.4023C38.7891 14.2852 39.1992 14.2266 39.6484 14.2266C40.2812 14.2266 40.8262 14.3438 41.2832 14.5781C41.7441 14.8125 42.0977 15.127 42.3438 15.5215C42.5938 15.916 42.7188 16.3516 42.7188 16.8281H41.2598C41.2598 16.5469 41.1992 16.2988 41.0781 16.084C40.9609 15.8652 40.7812 15.6934 40.5391 15.5684C40.3008 15.4434 39.998 15.3809 39.6309 15.3809C39.2832 15.3809 38.9941 15.4336 38.7637 15.5391C38.5332 15.6445 38.3613 15.7871 38.248 15.9668C38.1348 16.1465 38.0781 16.3496 38.0781 16.5762C38.0781 16.7363 38.1152 16.8828 38.1895 17.0156C38.2637 17.1445 38.377 17.2656 38.5293 17.3789C38.6816 17.4883 38.873 17.5918 39.1035 17.6895C39.334 17.7871 39.6055 17.8809 39.918 17.9707C40.3906 18.1113 40.8027 18.2676 41.1543 18.4395C41.5059 18.6074 41.7988 18.7988 42.0332 19.0137C42.2676 19.2285 42.4434 19.4727 42.5605 19.7461C42.6777 20.0156 42.7363 20.3223 42.7363 20.666C42.7363 21.0254 42.6641 21.3496 42.5195 21.6387C42.375 21.9238 42.168 22.168 41.8984 22.3711C41.6328 22.5703 41.3125 22.7246 40.9375 22.834C40.5664 22.9395 40.1523 22.9922 39.6953 22.9922C39.2852 22.9922 38.8809 22.9375 38.4824 22.8281C38.0879 22.7188 37.7285 22.5527 37.4043 22.3301C37.0801 22.1035 36.8223 21.8223 36.6309 21.4863C36.4395 21.1465 36.3438 20.75 36.3438 20.2969H37.8145C37.8145 20.5742 37.8613 20.8105 37.9551 21.0059C38.0527 21.2012 38.1875 21.3613 38.3594 21.4863C38.5312 21.6074 38.7305 21.6973 38.957 21.7559C39.1875 21.8145 39.4336 21.8438 39.6953 21.8438C40.0391 21.8438 40.3262 21.7949 40.5566 21.6973C40.791 21.5996 40.9668 21.4629 41.084 21.2871C41.2012 21.1113 41.2598 20.9082 41.2598 20.6777ZM45.4082 16.5352V22.875H43.9902V16.5352H45.4082ZM43.8965 14.8711C43.8965 14.6562 43.9668 14.4785 44.1074 14.3379C44.252 14.1934 44.4512 14.1211 44.7051 14.1211C44.9551 14.1211 45.1523 14.1934 45.2969 14.3379C45.4414 14.4785 45.5137 14.6562 45.5137 14.8711C45.5137 15.082 45.4414 15.2578 45.2969 15.3984C45.1523 15.5391 44.9551 15.6094 44.7051 15.6094C44.4512 15.6094 44.252 15.5391 44.1074 15.3984C43.9668 15.2578 43.8965 15.082 43.8965 14.8711ZM51.0156 16.5352H52.2988V22.6992C52.2988 23.2695 52.1777 23.7539 51.9355 24.1523C51.6934 24.5508 51.3555 24.8535 50.9219 25.0605C50.4883 25.2715 49.9863 25.377 49.416 25.377C49.1738 25.377 48.9043 25.3418 48.6074 25.2715C48.3145 25.2012 48.0293 25.0879 47.752 24.9316C47.4785 24.7793 47.25 24.5781 47.0664 24.3281L47.7285 23.4961C47.9551 23.7656 48.2051 23.9629 48.4785 24.0879C48.752 24.2129 49.0391 24.2754 49.3398 24.2754C49.6641 24.2754 49.9395 24.2148 50.166 24.0938C50.3965 23.9766 50.5742 23.8027 50.6992 23.5723C50.8242 23.3418 50.8867 23.0605 50.8867 22.7285V17.9707L51.0156 16.5352ZM46.709 19.7754V19.6523C46.709 19.1719 46.7676 18.7344 46.8848 18.3398C47.002 17.9414 47.1699 17.5996 47.3887 17.3145C47.6074 17.0254 47.873 16.8047 48.1855 16.6523C48.498 16.4961 48.8516 16.418 49.2461 16.418C49.6562 16.418 50.0059 16.4922 50.2949 16.6406C50.5879 16.7891 50.832 17.002 51.0273 17.2793C51.2227 17.5527 51.375 17.8809 51.4844 18.2637C51.5977 18.6426 51.6816 19.0645 51.7363 19.5293V19.9219C51.6855 20.375 51.5996 20.7891 51.4785 21.1641C51.3574 21.5391 51.1973 21.8633 50.998 22.1367C50.7988 22.4102 50.5527 22.6211 50.2598 22.7695C49.9707 22.918 49.6289 22.9922 49.2344 22.9922C48.8477 22.9922 48.498 22.9121 48.1855 22.752C47.877 22.5918 47.6113 22.3672 47.3887 22.0781C47.1699 21.7891 47.002 21.4492 46.8848 21.0586C46.7676 20.6641 46.709 20.2363 46.709 19.7754ZM48.1211 19.6523V19.7754C48.1211 20.0645 48.1484 20.334 48.2031 20.584C48.2617 20.834 48.3496 21.0547 48.4668 21.2461C48.5879 21.4336 48.7402 21.582 48.9238 21.6914C49.1113 21.7969 49.332 21.8496 49.5859 21.8496C49.918 21.8496 50.1895 21.7793 50.4004 21.6387C50.6152 21.498 50.7793 21.3086 50.8926 21.0703C51.0098 20.8281 51.0918 20.5586 51.1387 20.2617V19.2012C51.1152 18.9707 51.0664 18.7559 50.9922 18.5566C50.9219 18.3574 50.8262 18.1836 50.7051 18.0352C50.584 17.8828 50.4316 17.7656 50.248 17.6836C50.0645 17.5977 49.8477 17.5547 49.5977 17.5547C49.3438 17.5547 49.123 17.6094 48.9355 17.7188C48.748 17.8281 48.5938 17.9785 48.4727 18.1699C48.3555 18.3613 48.2676 18.584 48.209 18.8379C48.1504 19.0918 48.1211 19.3633 48.1211 19.6523ZM55.1641 17.8887V22.875H53.752V16.5352H55.082L55.1641 17.8887ZM54.9121 19.4707L54.4551 19.4648C54.459 19.0156 54.5215 18.6035 54.6426 18.2285C54.7676 17.8535 54.9395 17.5312 55.1582 17.2617C55.3809 16.9922 55.6465 16.7852 55.9551 16.6406C56.2637 16.4922 56.6074 16.418 56.9863 16.418C57.291 16.418 57.5664 16.4609 57.8125 16.5469C58.0625 16.6289 58.2754 16.7637 58.4512 16.9512C58.6309 17.1387 58.7676 17.3828 58.8613 17.6836C58.9551 17.9805 59.002 18.3457 59.002 18.7793V22.875H57.584V18.7734C57.584 18.4688 57.5391 18.2285 57.4492 18.0527C57.3633 17.873 57.2363 17.7461 57.0684 17.6719C56.9043 17.5938 56.6992 17.5547 56.4531 17.5547C56.2109 17.5547 55.9941 17.6055 55.8027 17.707C55.6113 17.8086 55.4492 17.9473 55.3164 18.123C55.1875 18.2988 55.0879 18.502 55.0176 18.7324C54.9473 18.9629 54.9121 19.209 54.9121 19.4707ZM65.1426 14.3438V22.875H63.6719V14.3438H65.1426ZM68.2305 17.8887V22.875H66.8184V16.5352H68.1484L68.2305 17.8887ZM67.9785 19.4707L67.5215 19.4648C67.5254 19.0156 67.5879 18.6035 67.709 18.2285C67.834 17.8535 68.0059 17.5312 68.2246 17.2617C68.4473 16.9922 68.7129 16.7852 69.0215 16.6406C69.3301 16.4922 69.6738 16.418 70.0527 16.418C70.3574 16.418 70.6328 16.4609 70.8789 16.5469C71.1289 16.6289 71.3418 16.7637 71.5176 16.9512C71.6973 17.1387 71.834 17.3828 71.9277 17.6836C72.0215 17.9805 72.0684 18.3457 72.0684 18.7793V22.875H70.6504V18.7734C70.6504 18.4688 70.6055 18.2285 70.5156 18.0527C70.4297 17.873 70.3027 17.7461 70.1348 17.6719C69.9707 17.5938 69.7656 17.5547 69.5195 17.5547C69.2773 17.5547 69.0605 17.6055 68.8691 17.707C68.6777 17.8086 68.5156 17.9473 68.3828 18.123C68.2539 18.2988 68.1543 18.502 68.084 18.7324C68.0137 18.9629 67.9785 19.209 67.9785 19.4707ZM78.2207 21.4688L79.6855 16.5352H80.5879L80.3418 18.0117L78.8652 22.875H78.0566L78.2207 21.4688ZM77.3594 16.5352L78.502 21.4922L78.5957 22.875H77.6934L75.9766 16.5352H77.3594ZM81.959 21.4336L83.0664 16.5352H84.4434L82.7324 22.875H81.8301L81.959 21.4336ZM80.7402 16.5352L82.1875 21.4102L82.3691 22.875H81.5605L80.0664 18.0059L79.8203 16.5352H80.7402ZM86.916 16.5352V22.875H85.498V16.5352H86.916ZM85.4043 14.8711C85.4043 14.6562 85.4746 14.4785 85.6152 14.3379C85.7598 14.1934 85.959 14.1211 86.2129 14.1211C86.4629 14.1211 86.6602 14.1934 86.8047 14.3379C86.9492 14.4785 87.0215 14.6562 87.0215 14.8711C87.0215 15.082 86.9492 15.2578 86.8047 15.3984C86.6602 15.5391 86.4629 15.6094 86.2129 15.6094C85.959 15.6094 85.7598 15.5391 85.6152 15.3984C85.4746 15.2578 85.4043 15.082 85.4043 14.8711ZM91.3691 16.5352V17.5664H87.7949V16.5352H91.3691ZM88.8262 14.9824H90.2383V21.123C90.2383 21.3184 90.2656 21.4688 90.3203 21.5742C90.3789 21.6758 90.459 21.7441 90.5605 21.7793C90.6621 21.8145 90.7812 21.832 90.918 21.832C91.0156 21.832 91.1094 21.8262 91.1992 21.8145C91.2891 21.8027 91.3613 21.791 91.416 21.7793L91.4219 22.8574C91.3047 22.8926 91.168 22.9238 91.0117 22.9512C90.8594 22.9785 90.6836 22.9922 90.4844 22.9922C90.1602 22.9922 89.873 22.9355 89.623 22.8223C89.373 22.7051 89.1777 22.5156 89.0371 22.2539C88.8965 21.9922 88.8262 21.6445 88.8262 21.2109V14.9824ZM93.8535 13.875V22.875H92.4473V13.875H93.8535ZM93.6074 19.4707L93.1504 19.4648C93.1543 19.0273 93.2148 18.623 93.332 18.252C93.4531 17.8809 93.6211 17.5586 93.8359 17.2852C94.0547 17.0078 94.3164 16.7949 94.6211 16.6465C94.9258 16.4941 95.2637 16.418 95.6348 16.418C95.9473 16.418 96.2285 16.4609 96.4785 16.5469C96.7324 16.6328 96.9512 16.7715 97.1348 16.9629C97.3184 17.1504 97.457 17.3965 97.5508 17.7012C97.6484 18.002 97.6973 18.3691 97.6973 18.8027V22.875H96.2793V18.791C96.2793 18.4863 96.2344 18.2441 96.1445 18.0645C96.0586 17.8848 95.9316 17.7559 95.7637 17.6777C95.5957 17.5957 95.3906 17.5547 95.1484 17.5547C94.8945 17.5547 94.6699 17.6055 94.4746 17.707C94.2832 17.8086 94.123 17.9473 93.9941 18.123C93.8652 18.2988 93.7676 18.502 93.7012 18.7324C93.6387 18.9629 93.6074 19.209 93.6074 19.4707ZM103.727 14.3438V22.875H102.256V14.3438H103.727ZM107.207 18.0762V19.2422H103.352V18.0762H107.207ZM107.693 14.3438V15.5156H103.352V14.3438H107.693ZM112.1 21.6035V18.5801C112.1 18.3535 112.059 18.1582 111.977 17.9941C111.895 17.8301 111.77 17.7031 111.602 17.6133C111.438 17.5234 111.23 17.4785 110.98 17.4785C110.75 17.4785 110.551 17.5176 110.383 17.5957C110.215 17.6738 110.084 17.7793 109.99 17.9121C109.896 18.0449 109.85 18.1953 109.85 18.3633H108.443C108.443 18.1133 108.504 17.8711 108.625 17.6367C108.746 17.4023 108.922 17.1934 109.152 17.0098C109.383 16.8262 109.658 16.6816 109.979 16.5762C110.299 16.4707 110.658 16.418 111.057 16.418C111.533 16.418 111.955 16.498 112.322 16.6582C112.693 16.8184 112.984 17.0605 113.195 17.3848C113.41 17.7051 113.518 18.1074 113.518 18.5918V21.4102C113.518 21.6992 113.537 21.959 113.576 22.1895C113.619 22.416 113.68 22.6133 113.758 22.7812V22.875H112.311C112.244 22.7227 112.191 22.5293 112.152 22.2949C112.117 22.0566 112.1 21.8262 112.1 21.6035ZM112.305 19.0195L112.316 19.8926H111.303C111.041 19.8926 110.811 19.918 110.611 19.9688C110.412 20.0156 110.246 20.0859 110.113 20.1797C109.98 20.2734 109.881 20.3867 109.814 20.5195C109.748 20.6523 109.715 20.8027 109.715 20.9707C109.715 21.1387 109.754 21.293 109.832 21.4336C109.91 21.5703 110.023 21.6777 110.172 21.7559C110.324 21.834 110.508 21.873 110.723 21.873C111.012 21.873 111.264 21.8145 111.479 21.6973C111.697 21.5762 111.869 21.4297 111.994 21.2578C112.119 21.082 112.186 20.916 112.193 20.7598L112.65 21.3867C112.604 21.5469 112.523 21.7188 112.41 21.9023C112.297 22.0859 112.148 22.2617 111.965 22.4297C111.785 22.5938 111.568 22.7285 111.314 22.834C111.064 22.9395 110.775 22.9922 110.447 22.9922C110.033 22.9922 109.664 22.9102 109.34 22.7461C109.016 22.5781 108.762 22.3535 108.578 22.0723C108.395 21.7871 108.303 21.4648 108.303 21.1055C108.303 20.7695 108.365 20.4727 108.49 20.2148C108.619 19.9531 108.807 19.7344 109.053 19.5586C109.303 19.3828 109.607 19.25 109.967 19.1602C110.326 19.0664 110.736 19.0195 111.197 19.0195H112.305ZM117.584 21.8672C117.814 21.8672 118.021 21.8223 118.205 21.7324C118.393 21.6387 118.543 21.5098 118.656 21.3457C118.773 21.1816 118.838 20.9922 118.85 20.7773H120.18C120.172 21.1875 120.051 21.5605 119.816 21.8965C119.582 22.2324 119.271 22.5 118.885 22.6992C118.498 22.8945 118.07 22.9922 117.602 22.9922C117.117 22.9922 116.695 22.9102 116.336 22.7461C115.977 22.5781 115.678 22.3477 115.439 22.0547C115.201 21.7617 115.021 21.4238 114.9 21.041C114.783 20.6582 114.725 20.248 114.725 19.8105V19.6055C114.725 19.168 114.783 18.7578 114.9 18.375C115.021 17.9883 115.201 17.6484 115.439 17.3555C115.678 17.0625 115.977 16.834 116.336 16.6699C116.695 16.502 117.115 16.418 117.596 16.418C118.104 16.418 118.549 16.5195 118.932 16.7227C119.314 16.9219 119.615 17.2012 119.834 17.5605C120.057 17.916 120.172 18.3301 120.18 18.8027H118.85C118.838 18.5684 118.779 18.3574 118.674 18.1699C118.572 17.9785 118.428 17.8262 118.24 17.7129C118.057 17.5996 117.836 17.543 117.578 17.543C117.293 17.543 117.057 17.6016 116.869 17.7188C116.682 17.832 116.535 17.9883 116.43 18.1875C116.324 18.3828 116.248 18.6035 116.201 18.8496C116.158 19.0918 116.137 19.3438 116.137 19.6055V19.8105C116.137 20.0723 116.158 20.3262 116.201 20.5723C116.244 20.8184 116.318 21.0391 116.424 21.2344C116.533 21.4258 116.682 21.5801 116.869 21.6973C117.057 21.8105 117.295 21.8672 117.584 21.8672ZM124.059 22.9922C123.59 22.9922 123.166 22.916 122.787 22.7637C122.412 22.6074 122.092 22.3906 121.826 22.1133C121.564 21.8359 121.363 21.5098 121.223 21.1348C121.082 20.7598 121.012 20.3555 121.012 19.9219V19.6875C121.012 19.1914 121.084 18.7422 121.229 18.3398C121.373 17.9375 121.574 17.5938 121.832 17.3086C122.09 17.0195 122.395 16.7988 122.746 16.6465C123.098 16.4941 123.479 16.418 123.889 16.418C124.342 16.418 124.738 16.4941 125.078 16.6465C125.418 16.7988 125.699 17.0137 125.922 17.291C126.148 17.5645 126.316 17.8906 126.426 18.2695C126.539 18.6484 126.596 19.0664 126.596 19.5234V20.127H121.697V19.1133H125.201V19.002C125.193 18.748 125.143 18.5098 125.049 18.2871C124.959 18.0645 124.82 17.8848 124.633 17.748C124.445 17.6113 124.195 17.543 123.883 17.543C123.648 17.543 123.439 17.5938 123.256 17.6953C123.076 17.793 122.926 17.9355 122.805 18.123C122.684 18.3105 122.59 18.5371 122.523 18.8027C122.461 19.0645 122.43 19.3594 122.43 19.6875V19.9219C122.43 20.1992 122.467 20.457 122.541 20.6953C122.619 20.9297 122.732 21.1348 122.881 21.3105C123.029 21.4863 123.209 21.625 123.42 21.7266C123.631 21.8242 123.871 21.873 124.141 21.873C124.48 21.873 124.783 21.8047 125.049 21.668C125.314 21.5312 125.545 21.3379 125.74 21.0879L126.484 21.8086C126.348 22.0078 126.17 22.1992 125.951 22.3828C125.732 22.5625 125.465 22.709 125.148 22.8223C124.836 22.9355 124.473 22.9922 124.059 22.9922ZM127.703 13.875H129.115V21.5215L128.98 22.875H127.703V13.875ZM133.252 19.6465V19.7695C133.252 20.2383 133.199 20.6699 133.094 21.0645C132.992 21.4551 132.836 21.7949 132.625 22.084C132.418 22.373 132.16 22.5977 131.852 22.7578C131.547 22.9141 131.193 22.9922 130.791 22.9922C130.396 22.9922 130.053 22.918 129.76 22.7695C129.467 22.6211 129.221 22.4102 129.021 22.1367C128.826 21.8633 128.668 21.5371 128.547 21.1582C128.426 20.7793 128.34 20.3613 128.289 19.9043V19.5117C128.34 19.0508 128.426 18.6328 128.547 18.2578C128.668 17.8789 128.826 17.5527 129.021 17.2793C129.221 17.002 129.465 16.7891 129.754 16.6406C130.047 16.4922 130.389 16.418 130.779 16.418C131.186 16.418 131.543 16.4961 131.852 16.6523C132.164 16.8086 132.424 17.0312 132.631 17.3203C132.838 17.6055 132.992 17.9453 133.094 18.3398C133.199 18.7344 133.252 19.1699 133.252 19.6465ZM131.84 19.7695V19.6465C131.84 19.3613 131.816 19.0938 131.77 18.8438C131.723 18.5898 131.645 18.3672 131.535 18.1758C131.43 17.9844 131.285 17.834 131.102 17.7246C130.922 17.6113 130.697 17.5547 130.428 17.5547C130.178 17.5547 129.963 17.5977 129.783 17.6836C129.604 17.7695 129.453 17.8867 129.332 18.0352C129.211 18.1836 129.115 18.3555 129.045 18.5508C128.979 18.7461 128.934 18.957 128.91 19.1836V20.2441C128.945 20.5371 129.02 20.8066 129.133 21.0527C129.25 21.2949 129.414 21.4902 129.625 21.6387C129.836 21.7832 130.107 21.8555 130.439 21.8555C130.701 21.8555 130.922 21.8027 131.102 21.6973C131.281 21.5918 131.424 21.4453 131.529 21.2578C131.639 21.0664 131.717 20.8438 131.764 20.5898C131.814 20.3359 131.84 20.0625 131.84 19.7695ZM134.178 19.7754V19.6406C134.178 19.1836 134.244 18.7598 134.377 18.3691C134.51 17.9746 134.701 17.6328 134.951 17.3438C135.205 17.0508 135.514 16.8242 135.877 16.6641C136.244 16.5 136.658 16.418 137.119 16.418C137.584 16.418 137.998 16.5 138.361 16.6641C138.729 16.8242 139.039 17.0508 139.293 17.3438C139.547 17.6328 139.74 17.9746 139.873 18.3691C140.006 18.7598 140.072 19.1836 140.072 19.6406V19.7754C140.072 20.2324 140.006 20.6562 139.873 21.0469C139.74 21.4375 139.547 21.7793 139.293 22.0723C139.039 22.3613 138.73 22.5879 138.367 22.752C138.004 22.9121 137.592 22.9922 137.131 22.9922C136.666 22.9922 136.25 22.9121 135.883 22.752C135.52 22.5879 135.211 22.3613 134.957 22.0723C134.703 21.7793 134.51 21.4375 134.377 21.0469C134.244 20.6562 134.178 20.2324 134.178 19.7754ZM135.59 19.6406V19.7754C135.59 20.0605 135.619 20.3301 135.678 20.584C135.736 20.8379 135.828 21.0605 135.953 21.252C136.078 21.4434 136.238 21.5938 136.434 21.7031C136.629 21.8125 136.861 21.8672 137.131 21.8672C137.393 21.8672 137.619 21.8125 137.811 21.7031C138.006 21.5938 138.166 21.4434 138.291 21.252C138.416 21.0605 138.508 20.8379 138.566 20.584C138.629 20.3301 138.66 20.0605 138.66 19.7754V19.6406C138.66 19.3594 138.629 19.0938 138.566 18.8438C138.508 18.5898 138.414 18.3652 138.285 18.1699C138.16 17.9746 138 17.8223 137.805 17.7129C137.613 17.5996 137.385 17.543 137.119 17.543C136.854 17.543 136.623 17.5996 136.428 17.7129C136.236 17.8223 136.078 17.9746 135.953 18.1699C135.828 18.3652 135.736 18.5898 135.678 18.8438C135.619 19.0938 135.59 19.3594 135.59 19.6406ZM140.986 19.7754V19.6406C140.986 19.1836 141.053 18.7598 141.186 18.3691C141.318 17.9746 141.51 17.6328 141.76 17.3438C142.014 17.0508 142.322 16.8242 142.686 16.6641C143.053 16.5 143.467 16.418 143.928 16.418C144.393 16.418 144.807 16.5 145.17 16.6641C145.537 16.8242 145.848 17.0508 146.102 17.3438C146.355 17.6328 146.549 17.9746 146.682 18.3691C146.814 18.7598 146.881 19.1836 146.881 19.6406V19.7754C146.881 20.2324 146.814 20.6562 146.682 21.0469C146.549 21.4375 146.355 21.7793 146.102 22.0723C145.848 22.3613 145.539 22.5879 145.176 22.752C144.812 22.9121 144.4 22.9922 143.939 22.9922C143.475 22.9922 143.059 22.9121 142.691 22.752C142.328 22.5879 142.02 22.3613 141.766 22.0723C141.512 21.7793 141.318 21.4375 141.186 21.0469C141.053 20.6562 140.986 20.2324 140.986 19.7754ZM142.398 19.6406V19.7754C142.398 20.0605 142.428 20.3301 142.486 20.584C142.545 20.8379 142.637 21.0605 142.762 21.252C142.887 21.4434 143.047 21.5938 143.242 21.7031C143.438 21.8125 143.67 21.8672 143.939 21.8672C144.201 21.8672 144.428 21.8125 144.619 21.7031C144.814 21.5938 144.975 21.4434 145.1 21.252C145.225 21.0605 145.316 20.8379 145.375 20.584C145.438 20.3301 145.469 20.0605 145.469 19.7754V19.6406C145.469 19.3594 145.438 19.0938 145.375 18.8438C145.316 18.5898 145.223 18.3652 145.094 18.1699C144.969 17.9746 144.809 17.8223 144.613 17.7129C144.422 17.5996 144.193 17.543 143.928 17.543C143.662 17.543 143.432 17.5996 143.236 17.7129C143.045 17.8223 142.887 17.9746 142.762 18.1699C142.637 18.3652 142.545 18.5898 142.486 18.8438C142.428 19.0938 142.398 19.3594 142.398 19.6406ZM149.488 13.875V22.875H148.07V13.875H149.488ZM153.426 16.5352L150.666 19.5938L149.154 21.1406L148.785 19.9453L149.928 18.5332L151.721 16.5352H153.426ZM152.025 22.875L149.969 19.8984L150.859 18.9082L153.66 22.875H152.025Z" fill="#F6F9FC"/>
<defs>
<clipPath id="clip0_97_6818">
<rect width="13.5" height="13.5" fill="white" transform="translate(12.125 11.625)"/>
</clipPath>
</defs>
</svg>
